<svg width="133" height="44" viewBox="0 0 133 44" fill="none" xmlns="http://www.w3.org/2000/svg">
<path d="M121.648 0.000143H10.9881C10.5848 0.000143 10.1862 0.000143 9.78394 0.002343C9.44718 0.004543 9.1131 0.010934 8.7731 0.016313C8.03446 0.025005 7.29756 0.0899869 6.56881 0.210694C5.84107 0.334029 5.13614 0.56655 4.47784 0.900394C3.82035 1.23706 3.21958 1.67453 2.69733 2.19692C2.17233 2.71784 1.73471 3.31996 1.40128 3.98012C1.06694 4.63896 0.835104 5.34497 0.713785 6.07377C0.591312 6.80164 0.525408 7.53791 0.516665 8.27597C0.506457 8.61323 0.505379 8.95161 0.5 9.28891V34.7146C0.505379 35.0561 0.506457 35.387 0.516665 35.7287C0.525411 36.4667 0.591315 37.2029 0.713785 37.9308C0.834769 38.66 1.06662 39.3664 1.40128 40.0255C1.73456 40.6835 2.17224 41.2832 2.69733 41.8012C3.2176 42.3259 3.81876 42.7637 4.47784 43.0978C5.13613 43.4325 5.84099 43.6664 6.56881 43.7917C7.29769 43.9114 8.03451 43.9764 8.7731 43.9862C9.1131 43.9936 9.44718 43.9979 9.78394 43.9979C10.1862 44.0001 10.5848 44.0001 10.9881 44.0001H121.648C122.044 44.0001 122.445 44.0001 122.841 43.9979C123.176 43.9979 123.52 43.9936 123.855 43.9862C124.592 43.9769 125.327 43.9119 126.055 43.7917C126.785 43.6656 127.492 43.4317 128.154 43.0978C128.812 42.7635 129.413 42.3258 129.933 41.8012C130.456 41.2812 130.895 40.6819 131.232 40.0255C131.565 39.3659 131.794 38.6596 131.913 37.9308C132.036 37.2028 132.104 36.4668 132.118 35.7287C132.122 35.387 132.122 35.0561 132.122 34.7146C132.13 34.315 132.13 33.9175 132.13 33.5114V10.4899C132.13 10.0871 132.13 9.68744 132.122 9.28891C132.122 8.95161 132.122 8.61323 132.118 8.27592C132.104 7.53781 132.036 6.8017 131.913 6.07373C131.794 5.34535 131.564 4.6394 131.232 3.98007C130.553 2.65686 129.477 1.57977 128.154 0.900295C127.492 0.567267 126.785 0.334807 126.055 0.210595C125.327 0.089356 124.592 0.0243515 123.855 0.016159C123.52 0.010791 123.176 0.004345 122.841 0.0022C122.445 0 122.044 0 121.648 0V0.000143Z" fill="#A6A6A6"/>
<path d="M9.7892 43.0374C9.45406 43.0374 9.127 43.0331 8.79449 43.0256C8.10565 43.0166 7.41842 42.9567 6.73843 42.8462C6.10438 42.737 5.49016 42.5339 4.91602 42.2435C4.34715 41.9556 3.82829 41.578 3.37932 41.1253C2.92385 40.6779 2.54466 40.159 2.25676 39.5891C1.96569 39.0156 1.76425 38.4008 1.65946 37.7662C1.5463 37.0843 1.48507 36.3948 1.47631 35.7037C1.46934 35.4717 1.46021 34.6993 1.46021 34.6993V9.28867C1.46021 9.28867 1.46993 8.52812 1.47636 8.30468C1.48475 7.61463 1.54562 6.92622 1.65845 6.2454C1.76343 5.60908 1.96502 4.99252 2.25625 4.41709C2.54309 3.84764 2.92018 3.32835 3.37291 2.87935C3.82512 2.42609 4.34564 2.04657 4.91548 1.75463C5.4883 1.46521 6.10136 1.26351 6.73413 1.1563C7.41635 1.04472 8.10596 0.984398 8.79719 0.975833L9.78974 0.962402H122.835L123.84 0.976372C124.524 0.984511 125.208 1.0443 125.884 1.15522C126.523 1.26377 127.142 1.46688 127.722 1.75786C128.863 2.34619 129.792 3.27698 130.378 4.41978C130.665 4.99124 130.863 5.60276 130.967 6.23359C131.081 6.91999 131.145 7.61381 131.158 8.30952C131.161 8.62104 131.161 8.95566 131.161 9.28867C131.17 9.70117 131.17 10.0938 131.17 10.4896V33.5112C131.17 33.9108 131.17 34.3008 131.161 34.6939C131.161 35.0516 131.161 35.3793 131.157 35.7166C131.144 36.3999 131.081 37.0813 130.969 37.7554C130.866 38.3946 130.666 39.0142 130.375 39.5924C130.085 40.1561 129.708 40.6705 129.258 41.1167C128.809 41.5718 128.289 41.9516 127.719 42.2414C127.141 42.534 126.522 42.7379 125.884 42.8462C125.204 42.9573 124.517 43.0172 123.828 43.0256C123.505 43.0331 123.168 43.0374 122.841 43.0374L121.648 43.0396L9.7892 43.0374Z" fill="black"/>
<path d="M27.7458 22.3325C27.7576 21.4144 28.0015 20.5142 28.4547 19.7156C28.9079 18.9171 29.5558 18.2461 30.338 17.7652C29.8411 17.0556 29.1856 16.4715 28.4234 16.0595C27.6613 15.6475 26.8137 15.4189 25.9477 15.3918C24.1006 15.1979 22.3098 16.4971 21.3685 16.4971C20.409 16.4971 18.9598 15.411 17.3992 15.4432C16.3898 15.4758 15.406 15.7693 14.5437 16.2952C13.6814 16.821 12.9701 17.5613 12.479 18.4438C10.3516 22.1271 11.9384 27.5402 13.9763 30.5175C14.9959 31.9754 16.1875 33.6039 17.7467 33.5461C19.2725 33.4828 19.8423 32.5732 21.684 32.5732C23.5087 32.5732 24.0433 33.5461 25.6341 33.5094C27.2713 33.4828 28.3029 32.045 29.2867 30.5734C30.0193 29.5346 30.583 28.3865 30.957 27.1716C30.0058 26.7693 29.1941 26.0959 28.623 25.2354C28.052 24.3748 27.7469 23.3653 27.7458 22.3325Z" fill="white"/>
<path d="M24.7411 13.4334C25.6338 12.3618 26.0736 10.9844 25.9671 9.59375C24.6033 9.73699 23.3435 10.3888 22.4388 11.4193C21.9964 11.9228 21.6576 12.5084 21.4417 13.1429C21.2259 13.7773 21.1372 14.4481 21.1807 15.1168C21.8628 15.1239 22.5377 14.976 23.1544 14.6844C23.7712 14.3928 24.3137 13.9651 24.7411 13.4334Z" fill="white"/>
<path d="M47.0326 29.8534H41.8259L40.5755 33.5455H38.3701L43.3019 19.8857H45.5932L50.5249 33.5455H48.2819L47.0326 29.8534ZM42.3651 28.1497H46.4923L44.4578 22.1577H44.4008L42.3651 28.1497Z" fill="white"/>
<path d="M61.1759 28.5666C61.1759 31.6614 59.5194 33.6498 57.0197 33.6498C56.3865 33.6829 55.7567 33.537 55.2026 33.2289C54.6484 32.9207 54.1922 32.4628 53.8862 31.9074H53.8389V36.8402H51.7947V23.5865H53.7734V25.243H53.811C54.1311 24.6902 54.595 24.2346 55.1534 23.9246C55.7118 23.6146 56.3438 23.4617 56.9821 23.4823C59.5097 23.4823 61.1759 25.4804 61.1759 28.5666ZM59.0747 28.5666C59.0747 26.5503 58.0327 25.2247 56.4428 25.2247C54.8809 25.2247 53.8303 26.5782 53.8303 28.5666C53.8303 30.5732 54.8809 31.9171 56.4428 31.9171C58.0327 31.9171 59.0747 30.6012 59.0747 28.5666Z" fill="white"/>
<path d="M72.137 28.5666C72.137 31.6614 70.4806 33.6498 67.9809 33.6498C67.3477 33.6829 66.7179 33.537 66.1638 33.2289C65.6096 32.9207 65.1534 32.4628 64.8474 31.9074H64.8001V36.8402H62.7559V23.5865H64.7346V25.2429H64.7722C65.0922 24.6902 65.5561 24.2346 66.1145 23.9246C66.6729 23.6146 67.3049 23.4617 67.9433 23.4823C70.4709 23.4823 72.137 25.4803 72.137 28.5666ZM70.0359 28.5666C70.0359 26.5503 68.9939 25.2247 67.404 25.2247C65.8421 25.2247 64.7915 26.5782 64.7915 28.5666C64.7915 30.5732 65.8421 31.9171 67.404 31.9171C68.9939 31.9171 70.0359 30.6012 70.0359 28.5666H70.0359Z" fill="white"/>
<path d="M79.3817 29.7398C79.5331 31.0944 80.8491 31.9838 82.6473 31.9838C84.3703 31.9838 85.61 31.0943 85.61 29.873C85.61 28.8127 84.8623 28.1779 83.092 27.7428L81.3217 27.3163C78.8134 26.7105 77.649 25.5374 77.649 23.6339C77.649 21.2771 79.7029 19.6582 82.6194 19.6582C85.5058 19.6582 87.4845 21.2771 87.5511 23.6339H85.4875C85.364 22.2707 84.2371 21.4479 82.5903 21.4479C80.9436 21.4479 79.8167 22.2804 79.8167 23.4921C79.8167 24.4578 80.5364 25.0261 82.2971 25.4611L83.802 25.8306C86.6047 26.4934 87.7691 27.6192 87.7691 29.6172C87.7691 32.1728 85.7335 33.7734 82.4958 33.7734C79.4665 33.7734 77.4212 32.2104 77.2891 29.7397L79.3817 29.7398Z" fill="white"/>
<path d="M92.1809 21.23V23.5868H94.0747V25.2057H92.1809V30.696C92.1809 31.5489 92.5601 31.9464 93.3926 31.9464C93.6174 31.9425 93.8419 31.9267 94.0651 31.8991V33.5083C93.6908 33.5782 93.3103 33.6099 92.9296 33.6028C90.9133 33.6028 90.127 32.8455 90.127 30.914V25.2057H88.679V23.5868H90.127V21.23H92.1809Z" fill="white"/>
<path d="M95.1716 28.5669C95.1716 25.4334 97.0171 23.4644 99.895 23.4644C102.782 23.4644 104.619 25.4334 104.619 28.5669C104.619 31.709 102.792 33.6694 99.895 33.6694C96.9988 33.6694 95.1716 31.709 95.1716 28.5669ZM102.536 28.5669C102.536 26.4174 101.551 25.1487 99.895 25.1487C98.2385 25.1487 97.2545 26.4271 97.2545 28.5669C97.2545 30.725 98.2385 31.984 99.895 31.984C101.551 31.984 102.536 30.725 102.536 28.5669H102.536Z" fill="white"/>
<path d="M106.305 23.5864H108.254V25.2815H108.302C108.434 24.7521 108.744 24.2842 109.18 23.9566C109.616 23.6289 110.152 23.4614 110.697 23.4822C110.933 23.4814 111.168 23.507 111.398 23.5585V25.4706C111.1 25.3797 110.79 25.338 110.479 25.3471C110.182 25.335 109.886 25.3874 109.611 25.5005C109.336 25.6137 109.089 25.785 108.887 26.0027C108.685 26.2204 108.532 26.4793 108.439 26.7616C108.346 27.044 108.315 27.343 108.349 27.6384V33.5455H106.305L106.305 23.5864Z" fill="white"/>
<path d="M120.823 30.6208C120.548 32.4287 118.787 33.6694 116.535 33.6694C113.637 33.6694 111.839 31.7283 111.839 28.6142C111.839 25.4903 113.647 23.4644 116.449 23.4644C119.204 23.4644 120.937 25.3571 120.937 28.3768V29.0771H113.903V29.2007C113.87 29.5672 113.916 29.9364 114.037 30.2839C114.159 30.6313 114.352 30.9489 114.606 31.2157C114.859 31.4825 115.166 31.6924 115.507 31.8313C115.848 31.9703 116.214 32.0351 116.582 32.0216C117.065 32.0668 117.55 31.955 117.964 31.7026C118.378 31.4502 118.7 31.0708 118.882 30.6208L120.823 30.6208ZM113.912 27.6484H118.891C118.91 27.3189 118.86 26.9891 118.745 26.6798C118.629 26.3704 118.452 26.0882 118.222 25.8509C117.993 25.6136 117.717 25.4262 117.412 25.3005C117.106 25.1749 116.779 25.1137 116.449 25.1208C116.116 25.1188 115.786 25.1828 115.478 25.309C115.17 25.4352 114.89 25.6212 114.654 25.8562C114.418 26.0912 114.231 26.3705 114.104 26.6782C113.977 26.9858 113.911 27.3155 113.912 27.6484V27.6484Z" fill="white"/>
<path d="M40.9121 12.3786H41.7898C41.9409 12.3974 42.0942 12.3848 42.2401 12.3414C42.3861 12.298 42.5214 12.2248 42.6377 12.1265C42.754 12.0282 42.8486 11.9069 42.9157 11.7702C42.9827 11.6335 43.0207 11.4844 43.0273 11.3323C43.0273 10.727 42.5718 10.336 41.7995 10.336C41.6447 10.3144 41.4871 10.324 41.3361 10.3643C41.1851 10.4045 41.0437 10.4746 40.9202 10.5705C40.7968 10.6663 40.6937 10.7859 40.6173 10.9222C40.5408 11.0585 40.4924 11.2087 40.4749 11.364H39.5113C39.5279 11.0821 39.6024 10.8066 39.73 10.5547C39.8577 10.3028 40.0359 10.0799 40.2534 9.89978C40.471 9.7197 40.7233 9.58634 40.9946 9.508C41.266 9.42966 41.5505 9.40801 41.8306 9.4444C43.1229 9.4444 44.0328 10.1679 44.0328 11.2093C44.0358 11.5582 43.9191 11.8976 43.7021 12.1708C43.4851 12.444 43.1809 12.6346 42.8404 12.7106V12.7879C43.2441 12.8058 43.6243 12.9828 43.8978 13.2802C44.1714 13.5777 44.3161 13.9713 44.3002 14.3751C44.2704 14.6653 44.1828 14.9467 44.0428 15.2028C43.9028 15.4588 43.713 15.6843 43.4847 15.866C43.2564 16.0477 42.9941 16.1821 42.7132 16.2611C42.4323 16.3402 42.1385 16.3624 41.8489 16.3264C41.5587 16.366 41.2635 16.3467 40.9809 16.2697C40.6983 16.1928 40.4341 16.0597 40.2041 15.8785C39.974 15.6972 39.7828 15.4715 39.6418 15.2148C39.5008 14.9581 39.413 14.6756 39.3835 14.3842H40.3622C40.4212 15.0121 40.9981 15.4171 41.8489 15.4171C42.6996 15.4171 43.255 14.9622 43.255 14.3209C43.255 13.6704 42.7319 13.2697 41.8177 13.2697H40.9121V12.3786Z" fill="white"/>
<path d="M45.4121 14.7657C45.4121 13.8741 46.077 13.3601 47.2544 13.2871L48.5961 13.2097V12.7822C48.5961 12.259 48.2513 11.9636 47.582 11.9636C47.0363 11.9636 46.6593 12.164 46.5497 12.5142H45.6033C45.7032 11.6634 46.5046 11.1177 47.6282 11.1177C48.87 11.1177 49.5704 11.7359 49.5704 12.7822V16.1665H48.6283V15.4704H48.551C48.394 15.7201 48.1735 15.9237 47.9122 16.0603C47.6508 16.1969 47.3578 16.2617 47.0632 16.2481C46.8553 16.2697 46.6451 16.2476 46.4463 16.183C46.2474 16.1184 46.0643 16.0129 45.9088 15.8732C45.7532 15.7336 45.6286 15.5629 45.5431 15.3721C45.4575 15.1813 45.4129 14.9748 45.4121 14.7657ZM48.5961 14.3425V13.9284L47.3865 14.0057C46.7043 14.0514 46.395 14.2834 46.395 14.7201C46.395 15.1659 46.7817 15.4253 47.3135 15.4253C47.4693 15.4411 47.6267 15.4253 47.7763 15.379C47.9259 15.3327 48.0647 15.2568 48.1843 15.1558C48.304 15.0548 48.4021 14.9307 48.4729 14.791C48.5436 14.6512 48.5855 14.4987 48.5961 14.3425Z" fill="white"/>
<path d="M52.1645 12.0362V16.1666H51.187V11.2134H54.4484V12.0362L52.1645 12.0362Z" fill="white"/>
<path d="M60.3727 13.6899C60.3727 15.2637 59.5767 16.2503 58.3263 16.2503C58.0193 16.2713 57.7128 16.2041 57.4427 16.0567C57.1727 15.9093 56.9504 15.6879 56.802 15.4184H56.7246V17.8155H55.7471V11.2155H56.6881V12.0341H56.7611C56.9122 11.7552 57.1374 11.5234 57.4119 11.3645C57.6864 11.2055 57.9995 11.1255 58.3166 11.1333C59.5767 11.1333 60.3727 12.1157 60.3727 13.6899ZM59.3672 13.6899C59.3672 12.6437 58.872 12.0115 58.0438 12.0115C57.221 12.0115 56.7064 12.6571 56.7064 13.6942C56.7064 14.7266 57.2209 15.3727 58.0395 15.3727C58.872 15.3727 59.3672 14.7405 59.3672 13.6899Z" fill="white"/>
<path d="M61.6748 17.9407V17.099C61.7806 17.1125 61.8872 17.1186 61.9938 17.1173C62.2021 17.1327 62.4087 17.0707 62.5741 16.9431C62.7394 16.8155 62.8518 16.6314 62.8897 16.426L62.9628 16.1849L61.1699 11.2134H62.2345L63.4763 15.1477H63.5537L64.7911 11.2134H65.8278L63.9812 16.3712C63.558 17.5765 63.0896 17.9632 62.0798 17.9632C61.9982 17.9632 61.7662 17.9541 61.6748 17.9407Z" fill="white"/>
<path d="M66.5894 14.761H67.5626C67.6582 15.1977 68.0675 15.4254 68.64 15.4254C69.291 15.4254 69.6906 15.1386 69.6906 14.6928C69.6906 14.2153 69.3318 13.9876 68.64 13.9876H67.8988V13.2281H68.6271C69.218 13.2281 69.5188 13.0009 69.5188 12.5868C69.5188 12.2232 69.2276 11.9455 68.6271 11.9455C68.0804 11.9455 67.6808 12.1775 67.6173 12.5686H66.6753C66.7457 12.1193 66.9897 11.7155 67.3547 11.4442C67.7197 11.1729 68.1766 11.0557 68.6271 11.1178C69.8045 11.1178 70.478 11.6501 70.478 12.4869C70.4835 12.7199 70.4089 12.9478 70.2665 13.1324C70.1242 13.317 69.9228 13.4471 69.696 13.501V13.5783C69.966 13.6132 70.2138 13.7459 70.3924 13.9513C70.571 14.1568 70.668 14.4206 70.6649 14.6928C70.6649 15.6344 69.8636 16.2574 68.64 16.2574C67.5583 16.2574 66.6796 15.7616 66.5894 14.761Z" fill="white"/>
<path d="M72.0725 16.1666V11.2134H73.0415V14.6203H73.1188L75.4015 11.2134H76.3705V16.1666H75.4015V12.7415H75.3285L73.0415 16.1666L72.0725 16.1666Z" fill="white"/>
<path d="M81.7083 12.0381H80.1485V16.1685H79.1699V12.0381H77.6101V11.2153H81.7083V12.0381Z" fill="white"/>
<path d="M86.9744 14.8292C86.8412 15.2819 86.5532 15.6734 86.1607 15.9353C85.7682 16.1972 85.2962 16.3129 84.827 16.2622C84.5007 16.2708 84.1764 16.2083 83.8767 16.079C83.5769 15.9497 83.3089 15.7568 83.0912 15.5135C82.8735 15.2703 82.7113 14.9826 82.616 14.6704C82.5206 14.3581 82.4943 14.0289 82.5389 13.7056C82.4955 13.3812 82.5222 13.0513 82.6174 12.7381C82.7125 12.425 82.8738 12.1359 83.0904 11.8905C83.3069 11.6452 83.5737 11.4492 83.8725 11.3159C84.1714 11.1825 84.4955 11.115 84.8227 11.1178C86.201 11.1178 87.0335 12.0594 87.0335 13.6148V13.9559H83.5358V14.0106C83.5203 14.1925 83.5431 14.3755 83.6025 14.548C83.662 14.7205 83.7569 14.8787 83.8811 15.0123C84.0054 15.1459 84.1562 15.2521 84.3239 15.324C84.4916 15.3959 84.6725 15.4319 84.855 15.4296C85.0886 15.4576 85.3253 15.4154 85.535 15.3085C85.7446 15.2016 85.9177 15.0347 86.0323 14.8292L86.9744 14.8292ZM83.5358 13.2329H86.0366C86.0489 13.0667 86.0264 12.8998 85.9704 12.7429C85.9144 12.586 85.8263 12.4425 85.7116 12.3217C85.5968 12.2008 85.4581 12.1053 85.3043 12.0413C85.1505 11.9772 84.985 11.946 84.8184 11.9498C84.6493 11.9475 84.4814 11.9791 84.3248 12.0428C84.1681 12.1064 84.0257 12.2009 83.9062 12.3205C83.7866 12.4401 83.6922 12.5825 83.6286 12.7392C83.565 12.8959 83.5335 13.0638 83.5358 13.2329H83.5358Z" fill="white"/>
<path d="M91.1184 11.2134H93.3517C94.3207 11.2134 94.8889 11.7043 94.8889 12.4729C94.8904 12.7168 94.8081 12.9538 94.6558 13.1442C94.5035 13.3347 94.2903 13.467 94.0521 13.5192V13.5965C94.3414 13.6148 94.6126 13.7435 94.8097 13.956C95.0068 14.1685 95.1148 14.4486 95.1113 14.7384C95.1113 15.6026 94.4614 16.1666 93.3743 16.1666H91.1184V11.2134ZM92.0874 11.9637V13.2463H93.0563C93.6471 13.2463 93.9296 13.0191 93.9296 12.6002C93.9296 12.214 93.6837 11.9637 93.1648 11.9637L92.0874 11.9637ZM92.0874 13.965V15.4163H93.2465C93.8244 15.4163 94.1338 15.1611 94.1338 14.6928C94.1338 14.197 93.7836 13.965 93.124 13.965L92.0874 13.965Z" fill="white"/>
</svg>
