<svg width="15" height="15" viewBox="0 0 15 15" fill="none" xmlns="http://www.w3.org/2000/svg">
<path d="M9.05222 7.49985L13.7453 2.80682L14.7131 1.83902C14.8558 1.69625 14.8558 1.46425 14.7131 1.32148L13.6775 0.285958C13.5348 0.143191 13.3028 0.143191 13.16 0.285958L7.49916 5.9468L1.83833 0.285501C1.69556 0.142733 1.46356 0.142733 1.32079 0.285501L0.28481 1.32103C0.142042 1.46379 0.142042 1.69579 0.28481 1.83856L5.94611 7.49985L0.28481 13.1607C0.142042 13.3035 0.142042 13.5355 0.28481 13.6782L1.32033 14.7137C1.4631 14.8565 1.6951 14.8565 1.83787 14.7137L7.49916 9.05291L12.1922 13.7459L13.16 14.7137C13.3028 14.8565 13.5348 14.8565 13.6775 14.7137L14.7131 13.6782C14.8558 13.5355 14.8558 13.3035 14.7131 13.1607L9.05222 7.49985Z" fill="#165659"/>
</svg>
