<svg width="12" height="22" viewBox="0 0 12 22" fill="none" xmlns="http://www.w3.org/2000/svg">
<path d="M10.9721 0.00450193L8.37725 0C5.46202 0 3.57807 2.09002 3.57807 5.32488V7.78001H0.969052C0.743602 7.78001 0.561035 7.97764 0.561035 8.22142V11.7786C0.561035 12.0224 0.74381 12.2198 0.969052 12.2198H3.57807V21.1957C3.57807 21.4395 3.76063 21.6369 3.98608 21.6369H7.3901C7.61555 21.6369 7.79812 21.4393 7.79812 21.1957V12.2198H10.8487C11.0741 12.2198 11.2567 12.0224 11.2567 11.7786L11.2579 8.22142C11.2579 8.10437 11.2148 7.99227 11.1384 7.90944C11.062 7.8266 10.958 7.78001 10.8497 7.78001H7.79812V5.69876C7.79812 4.69844 8.01857 4.19062 9.22368 4.19062L10.9717 4.18994C11.1969 4.18994 11.3795 3.99231 11.3795 3.74875V0.445691C11.3795 0.202362 11.1971 0.00495212 10.9721 0.00450193Z" fill="white"/>
</svg>
