<svg width="149" height="44" viewBox="0 0 149 44" fill="none" xmlns="http://www.w3.org/2000/svg">
<path d="M143 44H5.5C2.42 44 0 41.58 0 38.5V5.5C0 2.42 2.42 0 5.5 0H143C146.08 0 148.5 2.42 148.5 5.5V38.5C148.5 41.47 146.08 44 143 44Z" fill="black"/>
<path d="M143 0.88C145.53 0.88 147.62 2.97 147.62 5.5V38.5C147.62 41.03 145.53 43.12 143 43.12H5.5C2.97 43.12 0.88 41.03 0.88 38.5V5.5C0.88 2.97 2.97 0.88 5.5 0.88H143ZM143 0H5.5C2.42 0 0 2.42 0 5.5V38.5C0 41.58 2.42 44 5.5 44H143C146.08 44 148.5 41.58 148.5 38.5V5.5C148.5 2.53 146.08 0 143 0Z" fill="#A6A6A6"/>
<path d="M74.9102 23.9796C72.2702 23.9796 70.1802 25.9596 70.1802 28.7096C70.1802 31.3496 72.2702 33.4396 74.9102 33.4396C77.5502 33.4396 79.6402 31.4596 79.6402 28.7096C79.6402 25.8496 77.5502 23.9796 74.9102 23.9796ZM74.9102 31.4596C73.4802 31.4596 72.2702 30.2496 72.2702 28.5996C72.2702 26.9496 73.4802 25.7396 74.9102 25.7396C76.3402 25.7396 77.5502 26.8396 77.5502 28.5996C77.5502 30.2496 76.3402 31.4596 74.9102 31.4596ZM64.6802 23.9796C62.0402 23.9796 59.9502 25.9596 59.9502 28.7096C59.9502 31.3496 62.0402 33.4396 64.6802 33.4396C67.3202 33.4396 69.4102 31.4596 69.4102 28.7096C69.4102 25.8496 67.3202 23.9796 64.6802 23.9796ZM64.6802 31.4596C63.2502 31.4596 62.0402 30.2496 62.0402 28.5996C62.0402 26.9496 63.2502 25.7396 64.6802 25.7396C66.1102 25.7396 67.3202 26.8396 67.3202 28.5996C67.3202 30.2496 66.1102 31.4596 64.6802 31.4596ZM52.4702 25.4096V27.3896H57.2002C57.0902 28.4896 56.6502 29.3696 56.1002 29.9196C55.4402 30.5796 54.3402 31.3496 52.4702 31.3496C49.5002 31.3496 47.3002 29.0396 47.3002 26.0696C47.3002 23.0996 49.6102 20.7896 52.4702 20.7896C54.0102 20.7896 55.2202 21.4496 56.1002 22.2196L57.5302 20.7896C56.3202 19.6896 54.7802 18.8096 52.5802 18.8096C48.6202 18.8096 45.2102 22.1096 45.2102 26.0696C45.2102 30.0296 48.6202 33.3296 52.5802 33.3296C54.7802 33.3296 56.3202 32.6696 57.6402 31.2396C58.9602 29.9196 59.4002 28.0496 59.4002 26.6196C59.4002 26.1796 59.4002 25.7396 59.2902 25.4096H52.4702ZM102.41 26.9496C101.97 25.8496 100.87 23.9796 98.4502 23.9796C96.0302 23.9796 94.0502 25.8496 94.0502 28.7096C94.0502 31.3496 96.0302 33.4396 98.6702 33.4396C100.76 33.4396 102.08 32.1196 102.52 31.3496L100.98 30.2496C100.43 31.0196 99.7702 31.5696 98.6702 31.5696C97.5702 31.5696 96.9102 31.1296 96.3602 30.1396L102.63 27.4996L102.41 26.9496ZM96.0302 28.4896C96.0302 26.7296 97.4602 25.7396 98.4502 25.7396C99.2202 25.7396 99.9902 26.1796 100.21 26.7296L96.0302 28.4896ZM90.8602 32.9996H92.9502V19.2496H90.8602V32.9996ZM87.5602 24.9696C87.0102 24.4196 86.1302 23.8696 85.0302 23.8696C82.7202 23.8696 80.5202 25.9596 80.5202 28.5996C80.5202 31.2396 82.6102 33.2196 85.0302 33.2196C86.1302 33.2196 87.0102 32.6696 87.4502 32.1196H87.5602V32.7796C87.5602 34.5396 86.5702 35.5296 85.0302 35.5296C83.8202 35.5296 82.9402 34.6496 82.7202 33.8796L80.9602 34.6496C81.5102 35.8596 82.8302 37.3996 85.1402 37.3996C87.5602 37.3996 89.5402 35.9696 89.5402 32.5596V24.1996H87.5602V24.9696ZM85.1402 31.4596C83.7102 31.4596 82.5002 30.2496 82.5002 28.5996C82.5002 26.9496 83.7102 25.7396 85.1402 25.7396C86.5702 25.7396 87.6702 26.9496 87.6702 28.5996C87.6702 30.2496 86.5702 31.4596 85.1402 31.4596ZM111.98 19.2496H107.03V32.9996H109.12V27.8296H111.98C114.29 27.8296 116.49 26.1796 116.49 23.5396C116.49 20.8996 114.29 19.2496 111.98 19.2496ZM112.09 25.8496H109.12V21.1196H112.09C113.63 21.1196 114.51 22.4396 114.51 23.4296C114.4 24.6396 113.52 25.8496 112.09 25.8496ZM124.74 23.8696C123.2 23.8696 121.66 24.5296 121.11 25.9596L122.98 26.7296C123.42 25.9596 124.08 25.7396 124.85 25.7396C125.95 25.7396 126.94 26.3996 127.05 27.4996V27.6096C126.72 27.3896 125.84 27.0596 124.96 27.0596C122.98 27.0596 121 28.1596 121 30.1396C121 32.0096 122.65 33.2196 124.41 33.2196C125.84 33.2196 126.5 32.5596 127.05 31.8996H127.16V32.9996H129.14V27.7196C128.92 25.2996 127.05 23.8696 124.74 23.8696ZM124.52 31.4596C123.86 31.4596 122.87 31.1296 122.87 30.2496C122.87 29.1496 124.08 28.8196 125.07 28.8196C125.95 28.8196 126.39 29.0396 126.94 29.2596C126.72 30.5796 125.62 31.4596 124.52 31.4596ZM136.07 24.1996L133.76 30.1396H133.65L131.23 24.1996H129.03L132.66 32.5596L130.57 37.1796H132.66L138.27 24.1996H136.07ZM117.59 32.9996H119.68V19.2496H117.59V32.9996Z" fill="white"/>
<path d="M11.4401 8.25C11.1101 8.58 10.8901 9.13 10.8901 9.79V34.1C10.8901 34.76 11.1101 35.31 11.4401 35.64L11.5501 35.75L25.1901 22.11V22V21.89L11.4401 8.25Z" fill="url(#paint0_linear_670_6372)"/>
<path d="M29.7002 26.7318L25.1902 22.2218V22.0018V21.8918L29.7002 17.3818L29.8102 17.4918L35.2002 20.5718C36.7402 21.4518 36.7402 22.8818 35.2002 23.7618L29.7002 26.7318Z" fill="url(#paint1_linear_670_6372)"/>
<path d="M29.8102 26.62L25.1902 22L11.4402 35.75C11.9902 36.3 12.7602 36.3 13.7502 35.86L29.8102 26.62Z" fill="url(#paint2_linear_670_6372)"/>
<path d="M29.8102 17.3817L13.7502 8.25173C12.7602 7.70173 11.9902 7.81173 11.4402 8.36173L25.1902 22.0017L29.8102 17.3817Z" fill="url(#paint3_linear_670_6372)"/>
<path opacity="0.2" d="M29.7002 26.5117L13.7502 35.5317C12.8702 36.0817 12.1002 35.9717 11.5502 35.5317L11.4402 35.6417L11.5502 35.7517C12.1002 36.1917 12.8702 36.3017 13.7502 35.7517L29.7002 26.5117Z" fill="black"/>
<path opacity="0.12" d="M11.4402 35.5302C11.1102 35.2002 11.0002 34.6502 11.0002 33.9902V34.1002C11.0002 34.7602 11.2202 35.3102 11.5502 35.6402V35.5302H11.4402Z" fill="black"/>
<path opacity="0.12" d="M35.2002 23.43L29.7002 26.51L29.8102 26.62L35.2002 23.54C35.9702 23.1 36.3002 22.55 36.3002 22C36.3002 22.55 35.8602 22.99 35.2002 23.43Z" fill="black"/>
<path opacity="0.25" d="M13.7502 8.36138L35.2002 20.5714C35.8602 21.0114 36.3002 21.4514 36.3002 22.0014C36.3002 21.4514 35.9702 20.9014 35.2002 20.4614L13.7502 8.25138C12.2102 7.37138 11.0002 8.14138 11.0002 9.90138V10.0114C11.0002 8.25138 12.2102 7.48138 13.7502 8.36138Z" fill="white"/>
<path d="M46.3098 15.7287H45.5398V13.5287H46.1998C46.7498 13.0887 47.0798 12.2087 47.0798 10.9987V7.69873H51.4798V13.5287H52.2498V15.7287H51.4798V14.2987H46.4198V15.7287H46.3098ZM47.8498 10.9987C47.8498 11.9887 47.6298 12.8687 47.1898 13.5287H50.4898V8.57873H47.7398V10.9987H47.8498Z" fill="white" stroke="white" stroke-width="0.2" stroke-miterlimit="10"/>
<path d="M58.7399 13.4213C58.0799 14.0813 57.3099 14.4113 56.3199 14.4113C55.3299 14.4113 54.5599 14.0813 53.8999 13.4213C53.2399 12.7613 52.9099 11.9913 52.9099 11.0013C52.9099 10.0113 53.2399 9.24131 53.8999 8.58131C54.5599 7.92131 55.3299 7.59131 56.3199 7.59131C57.3099 7.59131 58.0799 7.92131 58.7399 8.58131C59.3999 9.24131 59.7299 10.0113 59.7299 11.0013C59.7299 11.9913 59.3999 12.7613 58.7399 13.4213ZM54.5599 12.8713C54.9999 13.3113 55.6599 13.6413 56.3199 13.6413C56.9799 13.6413 57.6399 13.4213 58.0799 12.8713C58.5199 12.4313 58.8499 11.7713 58.8499 11.0013C58.8499 10.2313 58.6299 9.57131 58.0799 9.13131C57.6399 8.69131 56.9799 8.36131 56.3199 8.36131C55.6599 8.36131 54.9999 8.58131 54.5599 9.13131C54.1199 9.57131 53.7899 10.2313 53.7899 11.0013C53.7899 11.7713 54.0099 12.4313 54.5599 12.8713Z" fill="white" stroke="white" stroke-width="0.2" stroke-miterlimit="10"/>
<path d="M64.0201 14.4113C63.0301 14.4113 62.2601 14.0813 61.6001 13.4213C60.9401 12.7613 60.6101 11.9913 60.6101 11.0013C60.6101 10.0113 60.9401 9.24131 61.6001 8.58131C62.2601 7.92131 63.0301 7.59131 64.0201 7.59131C65.0101 7.59131 65.7801 7.92131 66.4401 8.69131L65.8901 9.24131C65.4501 8.69131 64.7901 8.36131 64.0201 8.36131C63.2501 8.36131 62.7001 8.58131 62.1501 9.13131C61.6001 9.57131 61.3801 10.2313 61.3801 11.0013C61.3801 11.7713 61.6001 12.4313 62.1501 12.8713C62.5901 13.3113 63.2501 13.6413 64.0201 13.6413C64.7901 13.6413 65.4501 13.3113 66.0001 12.6513L66.5501 13.2013C66.2201 13.5313 65.8901 13.8613 65.4501 14.0813C65.0101 14.3013 64.5701 14.4113 64.0201 14.4113Z" fill="white" stroke="white" stroke-width="0.2" stroke-miterlimit="10"/>
<path d="M70.0696 14.2987H69.1896V8.46873H67.3196V7.69873H71.8296V8.46873H69.9596V14.2987H70.0696Z" fill="white" stroke="white" stroke-width="0.2" stroke-miterlimit="10"/>
<path d="M77.6596 7.69873L75.1296 13.3087C74.7996 14.0787 74.2496 14.5187 73.5896 14.5187C73.3696 14.5187 73.1496 14.5187 72.9296 14.4087L73.1496 13.6387C73.2596 13.7487 73.4796 13.7487 73.5896 13.7487C73.8096 13.7487 73.9196 13.7487 74.0296 13.6387C74.1396 13.5287 74.2496 13.4187 74.3596 13.1987L74.5796 12.6487L72.3796 7.80873H73.3696L75.0196 11.5487L76.5596 7.80873H77.6596V7.69873Z" fill="white" stroke="white" stroke-width="0.2" stroke-miterlimit="10"/>
<path d="M78.6499 14.2987V7.69873H83.3799V14.2987H82.4999V8.46873H79.4199V14.2987H78.6499Z" fill="white" stroke="white" stroke-width="0.2" stroke-miterlimit="10"/>
<path d="M84.9197 14.2987V7.69873H85.7997V10.5587H89.0997V7.69873H89.9797V14.2987H89.0997V11.3287H85.7997V14.2987H84.9197Z" fill="white" stroke="white" stroke-width="0.2" stroke-miterlimit="10"/>
<path d="M96.9096 13.4213C96.2496 14.0813 95.4796 14.4113 94.4896 14.4113C93.4996 14.4113 92.7296 14.0813 92.0696 13.4213C91.4096 12.7613 91.0796 11.9913 91.0796 11.0013C91.0796 10.0113 91.4096 9.24131 92.0696 8.58131C92.7296 7.92131 93.4996 7.59131 94.4896 7.59131C95.4796 7.59131 96.2496 7.92131 96.9096 8.58131C97.5696 9.24131 97.8996 10.0113 97.8996 11.0013C97.7896 11.9913 97.4596 12.7613 96.9096 13.4213ZM92.6196 12.8713C93.0596 13.3113 93.7196 13.6413 94.3796 13.6413C95.0396 13.6413 95.6996 13.4213 96.1396 12.8713C96.5796 12.4313 96.9096 11.7713 96.9096 11.0013C96.9096 10.2313 96.6896 9.57131 96.1396 9.13131C95.6996 8.69131 95.0396 8.36131 94.3796 8.36131C93.7196 8.36131 93.0596 8.58131 92.6196 9.13131C92.1796 9.57131 91.8496 10.2313 91.8496 11.0013C91.8496 11.7713 92.1796 12.4313 92.6196 12.8713Z" fill="white" stroke="white" stroke-width="0.2" stroke-miterlimit="10"/>
<path d="M101.31 14.2987V7.69873H103.73C104.28 7.69873 104.72 7.91873 105.05 8.24873C105.38 8.57873 105.6 9.01873 105.6 9.56873C105.6 9.89873 105.49 10.1187 105.38 10.4487C105.27 10.6687 105.05 10.8887 104.72 10.9987C105.05 11.1087 105.27 11.3287 105.49 11.5487C105.71 11.7687 105.82 12.0987 105.82 12.5387C105.82 13.0887 105.6 13.5287 105.27 13.8587C104.83 14.1887 104.39 14.4087 103.84 14.4087H101.31V14.2987ZM102.19 10.5587H103.73C104.06 10.5587 104.28 10.4487 104.5 10.2287C104.72 10.0087 104.83 9.78873 104.83 9.56873C104.83 9.34873 104.72 9.12873 104.5 8.90873C104.28 8.68873 104.06 8.57873 103.73 8.57873H102.19V10.5587ZM102.19 13.5287H103.95C104.28 13.5287 104.5 13.4187 104.72 13.1987C104.94 12.9787 105.05 12.7587 105.05 12.4287C105.05 12.2087 104.94 11.8787 104.72 11.6587C104.5 11.4387 104.28 11.3287 103.95 11.3287H102.3V13.5287H102.19Z" fill="white" stroke="white" stroke-width="0.2" stroke-miterlimit="10"/>
<defs>
<linearGradient id="paint0_linear_670_6372" x1="23.9798" y1="9.58067" x2="5.51917" y2="28.0413" gradientUnits="userSpaceOnUse">
<stop stop-color="#00A0FF"/>
<stop offset="0.00657445" stop-color="#00A1FF"/>
<stop offset="0.2601" stop-color="#00BEFF"/>
<stop offset="0.5122" stop-color="#00D2FF"/>
<stop offset="0.7604" stop-color="#00DFFF"/>
<stop offset="1" stop-color="#00E3FF"/>
</linearGradient>
<linearGradient id="paint1_linear_670_6372" x1="37.218" y1="22.0034" x2="10.6014" y2="22.0034" gradientUnits="userSpaceOnUse">
<stop stop-color="#FFE000"/>
<stop offset="0.4087" stop-color="#FFBD00"/>
<stop offset="0.7754" stop-color="#FFA500"/>
<stop offset="1" stop-color="#FF9C00"/>
</linearGradient>
<linearGradient id="paint2_linear_670_6372" x1="27.3099" y1="24.5257" x2="2.27576" y2="49.5598" gradientUnits="userSpaceOnUse">
<stop stop-color="#FF3A44"/>
<stop offset="1" stop-color="#C31162"/>
</linearGradient>
<linearGradient id="paint3_linear_670_6372" x1="8.02722" y1="0.195557" x2="19.2061" y2="11.3743" gradientUnits="userSpaceOnUse">
<stop stop-color="#32A071"/>
<stop offset="0.0685" stop-color="#2DA771"/>
<stop offset="0.4762" stop-color="#15CF74"/>
<stop offset="0.8009" stop-color="#06E775"/>
<stop offset="1" stop-color="#00F076"/>
</linearGradient>
</defs>
</svg>
