<svg width="46" height="46" viewBox="0 0 46 46" fill="none" xmlns="http://www.w3.org/2000/svg">
<rect x="1.64307" y="8.21429" width="42.7143" height="29.5714" rx="1.64286" stroke="#118181" stroke-width="2.62857"/>
<path d="M22.0554 18.0487L22.116 18.1497C21.652 18.5946 21.4164 19.2561 21.3505 19.9087C21.1191 22.0578 23.0513 24.8909 24.3481 26.7525C25.3435 28.1849 26.6563 29.7226 26.445 31.6794C26.2583 33.3819 24.5377 34.5829 22.9489 34.5756L22.9638 34.459C23.8796 34.3225 24.5729 33.693 24.6937 32.5462C24.9992 29.7243 19.727 25.8137 20.1711 21.6871C20.3198 20.2378 20.8309 18.9246 22.0554 18.0487ZM21.3587 14.1813C21.5454 12.4787 23.2661 11.2777 24.8548 11.2851L24.8399 11.4016C23.9241 11.5382 23.2376 12.1681 23.1101 13.3145C22.8046 16.1364 28.095 19.8822 27.6509 24.0088C27.4955 25.4576 26.9666 26.9287 25.7416 27.8115L25.6811 27.7105C26.145 27.2656 26.3806 26.6041 26.4465 25.9515C26.678 23.8024 24.6799 20.944 23.3836 19.0754C22.3876 17.6499 21.1672 15.9527 21.3587 14.1813Z" fill="#118181"/>
</svg>
