<svg width="31" height="31" viewBox="0 0 31 31" fill="none" xmlns="http://www.w3.org/2000/svg">
<rect x="1.10742" y="5.53571" width="28.7857" height="19.9286" rx="1.10714" stroke="#118181" stroke-width="1.77143"/>
<path d="M14.8636 12.1632L14.9044 12.2313C14.5917 12.5312 14.4329 12.9769 14.3885 13.4167C14.2326 14.865 15.5347 16.7743 16.4086 18.0289C17.0795 18.9942 17.9641 20.0304 17.8218 21.3491C17.696 22.4965 16.5364 23.3059 15.4657 23.301L15.4758 23.2224C16.0929 23.1304 16.5601 22.7062 16.6415 21.9333C16.8474 20.0316 13.2944 17.3962 13.5937 14.6152C13.6939 13.6386 14.0384 12.7535 14.8636 12.1632ZM14.3941 9.55696C14.5199 8.40957 15.6794 7.60021 16.7501 7.60515L16.7401 7.6837C16.1229 7.77574 15.6603 8.20027 15.5743 8.97282C15.3684 10.8745 18.9338 13.3989 18.6345 16.1798C18.5297 17.1562 18.1733 18.1476 17.3478 18.7426L17.3069 18.6744C17.6196 18.3746 17.7784 17.9288 17.8228 17.4891C17.9788 16.0408 16.6322 14.1144 15.7586 12.8552C15.0875 11.8945 14.265 10.7507 14.3941 9.55696Z" fill="#118181"/>
</svg>
