<svg width="24" height="23" viewBox="0 0 24 23" fill="none" xmlns="http://www.w3.org/2000/svg">
<path d="M17.4087 0H7.17516C3.69991 0 0.872559 2.82748 0.872559 6.30274V16.5363C0.872559 20.0116 3.69991 22.839 7.17516 22.839H17.4087C20.8842 22.839 23.7116 20.0115 23.7116 16.5363V6.30274C23.7117 2.82748 20.8842 0 17.4087 0ZM21.6853 16.5363C21.6853 18.8943 19.7669 20.8126 17.4088 20.8126H7.17516C4.81726 20.8127 2.89894 18.8943 2.89894 16.5363V6.30274C2.89894 3.94483 4.81726 2.02639 7.17516 2.02639H17.4087C19.7667 2.02639 21.6852 3.94483 21.6852 6.30274V16.5363H21.6853Z" fill="#118181"/>
<path d="M12.294 5.53711C9.04891 5.53711 6.40894 8.17708 6.40894 11.4221C6.40894 14.6671 9.04891 17.3069 12.294 17.3069C15.539 17.3069 18.179 14.6671 18.179 11.4221C18.179 8.17708 15.539 5.53711 12.294 5.53711ZM12.294 15.2804C10.1664 15.2804 8.43532 13.5496 8.43532 11.422C8.43532 9.2943 10.1663 7.56336 12.294 7.56336C14.4217 7.56336 16.1526 9.2943 16.1526 11.422C16.1526 13.5496 14.4215 15.2804 12.294 15.2804Z" fill="#118181"/>
<path d="M18.4223 3.81934C18.0319 3.81934 17.6484 3.97739 17.3726 4.25433C17.0956 4.52992 16.9363 4.91358 16.9363 5.30535C16.9363 5.6959 17.0957 6.07943 17.3726 6.35637C17.6482 6.63196 18.0319 6.79137 18.4223 6.79137C18.8141 6.79137 19.1964 6.63196 19.4733 6.35637C19.7503 6.07943 19.9083 5.69577 19.9083 5.30535C19.9083 4.91358 19.7503 4.52992 19.4733 4.25433C19.1977 3.97739 18.8141 3.81934 18.4223 3.81934Z" fill="#118181"/>
</svg>
