<svg width="142" height="28" viewBox="0 0 142 28" fill="none" xmlns="http://www.w3.org/2000/svg">
<path d="M3.25292 8.26371L3.32401 8.38238C2.77936 8.90467 2.50275 9.68122 2.42536 10.4473C2.15367 12.9703 4.42204 16.2962 5.94446 18.4818C7.11307 20.1634 8.65415 21.9685 8.40617 24.2657C8.18701 26.2645 6.16705 27.6744 4.30187 27.6658L4.31938 27.529C5.39448 27.3687 6.20835 26.6297 6.35014 25.2833C6.70882 21.9705 0.519435 17.3796 1.0408 12.5352C1.21535 10.8338 1.81541 9.29206 3.25292 8.26371ZM2.43504 3.72355C2.65421 1.72478 4.67416 0.314859 6.53935 0.323466L6.52184 0.460304C5.44673 0.620644 4.64077 1.36018 4.49108 2.70597C4.1324 6.01876 10.3432 10.4163 9.82188 15.2607C9.63943 16.9616 9.01847 18.6886 7.5804 19.725L7.5093 19.6064C8.05395 19.0841 8.33056 18.3075 8.40795 17.5414C8.67965 15.0184 6.33396 11.6627 4.81211 9.46912C3.64293 7.79559 2.21023 5.80313 2.43504 3.72355Z" fill="white"/>
<path d="M26.2332 13.0039C26.2387 13.6953 26.1716 14.3854 26.033 15.0628C25.9197 15.6382 25.7179 16.1926 25.4349 16.7062C25.1972 17.1438 24.8586 17.5185 24.4471 17.7991C24.0465 18.0607 23.5767 18.1964 23.0982 18.1887C22.5421 18.1887 22.0832 18.0338 21.7217 17.724C21.3687 17.4265 21.1082 17.0343 20.9709 16.5936H20.9317V22.4249H18.8245V8.17794H20.8958V9.54607H20.9326C21.0816 9.09133 21.3357 8.67809 21.6742 8.33978C22.004 8.01721 22.4787 7.85565 23.0982 7.85509C23.5739 7.84628 24.0411 7.98213 24.438 8.24468C24.8422 8.52603 25.1765 8.8965 25.4148 9.3275C25.6992 9.83808 25.9045 10.3888 26.0238 10.9609C26.1679 11.6322 26.2382 12.3173 26.2332 13.0039ZM24.0859 13.0039C24.0877 12.5711 24.0559 12.1388 23.9908 11.7109C23.9401 11.3522 23.8445 11.0013 23.7064 10.6664C23.5972 10.4007 23.4282 10.1637 23.2125 9.97403C23.011 9.80327 22.7541 9.7119 22.4901 9.71709C22.2322 9.71436 21.9822 9.80571 21.7868 9.97403C21.5703 10.1645 21.3992 10.4011 21.2863 10.6664C21.1402 11 21.0378 11.3511 20.9818 11.7109C20.8437 12.5674 20.8437 13.4405 20.9818 14.297C21.038 14.6601 21.1397 15.0146 21.2846 15.3523C21.396 15.6216 21.5672 15.8621 21.7851 16.0555C21.9805 16.2239 22.2305 16.3152 22.4884 16.3125C22.7525 16.3177 23.0093 16.2263 23.2108 16.0555C23.4286 15.863 23.5983 15.6222 23.7064 15.3523C23.8437 15.0142 23.9392 14.6607 23.9908 14.2995C24.056 13.8708 24.0878 13.4376 24.0859 13.0039Z" fill="white"/>
<path d="M32.2556 16.4218C32.1155 16.9532 31.8635 17.3686 31.4956 17.6648C31.1277 17.9609 30.6414 18.1119 30.0332 18.1119C29.742 18.1099 29.4532 18.0589 29.179 17.9609C28.8815 17.8559 28.6116 17.6848 28.3898 17.4604C28.1379 17.1987 27.9416 16.8889 27.8125 16.5494C27.6485 16.1139 27.5708 15.6506 27.5839 15.1854C27.5839 14.5025 27.7074 13.9424 27.9543 13.5053C28.1824 13.0887 28.5081 12.7337 28.9037 12.4709C29.2966 12.2147 29.7354 12.037 30.1959 11.9478C30.6542 11.8547 31.1206 11.8072 31.5882 11.806H32.1196V11.5032C32.1196 10.8569 31.9901 10.3914 31.7309 10.1067C31.4717 9.82191 31.1263 9.67954 30.6948 9.67954C30.3456 9.67521 30.0015 9.76389 29.6979 9.93648C29.3996 10.1084 29.1385 10.3378 28.9296 10.6114L27.9035 9.26243C28.2639 8.81433 28.7265 8.45905 29.2524 8.22632C29.7571 7.98772 30.3075 7.86108 30.8658 7.85509C31.4614 7.85509 31.965 7.95019 32.3766 8.14039C32.7785 8.32104 33.1243 8.60662 33.3776 8.96711C33.6475 9.37023 33.8315 9.82458 33.9182 10.3019C34.0317 10.8965 34.0859 11.501 34.0801 12.1063V17.8625H32.2906V16.4218H32.2556ZM32.1797 13.3259H31.5532C31.295 13.3252 31.0373 13.3478 30.7832 13.3935C30.5495 13.432 30.3264 13.5189 30.1283 13.6488C29.9337 13.7805 29.7765 13.9604 29.672 14.171C29.5489 14.436 29.4908 14.7266 29.5027 15.0186C29.5027 15.5266 29.6128 15.8995 29.8364 16.1406C29.9311 16.2524 30.0489 16.3425 30.1816 16.4045C30.3144 16.4666 30.459 16.4992 30.6055 16.5002C30.8738 16.5084 31.1363 16.4212 31.3463 16.2541C31.5528 16.0846 31.7185 15.8707 31.831 15.6284C31.9536 15.3578 32.0403 15.0723 32.0888 14.7792C32.1437 14.4814 32.1716 14.1793 32.1722 13.8765L32.1797 13.3259Z" fill="white"/>
<path d="M39.4707 8.40652C39.6291 8.23222 39.8223 8.09308 40.0378 7.9981C40.2534 7.90312 40.4865 7.8544 40.722 7.85509H40.8822C40.9383 7.85737 40.9936 7.87039 41.0448 7.89347L40.9314 10.0967C40.7831 10.0571 40.6302 10.0377 40.4767 10.0391C40.2074 10.0357 39.9453 10.1266 39.7359 10.296C39.5082 10.4809 39.3205 10.7102 39.1845 10.9701C39.025 11.2682 38.9098 11.5881 38.8425 11.9194C38.7662 12.2759 38.7279 12.6394 38.7282 13.0039V17.8658H36.5442V8.17794H38.6531V10.0399H38.6915C38.8561 9.31861 39.1158 8.77413 39.4707 8.40652Z" fill="white"/>
<path d="M46.2321 16.4217C46.0919 16.9531 45.84 17.3686 45.4721 17.6647C45.1042 17.9609 44.617 18.1119 44.0097 18.1119C43.7182 18.1098 43.4292 18.0588 43.1546 17.9609C42.8573 17.856 42.5877 17.6848 42.3663 17.4603C42.1141 17.1988 41.9175 16.8889 41.7882 16.5494C41.6251 16.1151 41.5474 15.6533 41.5596 15.1896C41.5596 14.5066 41.6828 13.9466 41.9291 13.5095C42.158 13.0929 42.4843 12.738 42.8802 12.475C43.2726 12.2185 43.7112 12.0409 44.1715 11.952C44.6309 11.8584 45.0984 11.8106 45.5672 11.8093H46.0986V11.5031C46.0986 10.8569 45.9687 10.3914 45.709 10.1066C45.4493 9.82189 45.1042 9.67952 44.6737 9.67952C44.3245 9.67507 43.9804 9.76376 43.6768 9.93646C43.3786 10.1083 43.1174 10.3377 42.9085 10.6114L41.8816 9.26241C42.2426 8.81529 42.7051 8.46067 43.2305 8.22797C43.7361 7.98926 44.2873 7.86263 44.8464 7.85674C45.4398 7.85674 45.9429 7.95184 46.3555 8.14204C46.7575 8.32258 47.1033 8.60818 47.3566 8.96876C47.6274 9.37146 47.8118 9.82595 47.898 10.3035C48.0112 10.8982 48.0651 11.5026 48.059 12.108V17.8641H46.2705V16.4217H46.2321ZM46.157 13.3259H45.5297C45.2715 13.3252 45.0138 13.3478 44.7597 13.3935C44.526 13.432 44.3029 13.5189 44.1048 13.6488C43.9101 13.7805 43.7529 13.9604 43.6485 14.171C43.5256 14.4361 43.467 14.7265 43.4775 15.0186C43.4775 15.5266 43.5884 15.8995 43.8112 16.1406C43.9061 16.2524 44.024 16.3425 44.1569 16.4045C44.2898 16.4666 44.4345 16.4992 44.5812 16.5002C44.8492 16.5083 45.1113 16.4211 45.3211 16.2541C45.5274 16.0843 45.693 15.8706 45.8058 15.6284C45.9303 15.359 46.0195 15.0747 46.0711 14.7825C46.126 14.4847 46.1539 14.1826 46.1545 13.8798L46.157 13.3259Z" fill="white"/>
<path d="M57.2863 17.5997C57.2929 18.2607 57.2229 18.9202 57.0777 19.5651C56.9561 20.1131 56.723 20.6303 56.3928 21.0842C56.0762 21.5096 55.6584 21.8491 55.1773 22.072C54.6835 22.3067 54.082 22.424 53.3729 22.424C52.7135 22.4264 52.0605 22.2938 51.4542 22.0344C50.8849 21.8015 50.3727 21.4484 49.9526 20.9991L51.1113 19.4617C51.393 19.7671 51.7234 20.0236 52.089 20.2208C52.4658 20.4242 52.888 20.5287 53.3162 20.5245C53.6281 20.5355 53.937 20.4592 54.208 20.3042C54.45 20.1617 54.6511 19.9591 54.7919 19.7161C54.9467 19.4455 55.0528 19.1499 55.1056 18.8427C55.1697 18.4826 55.2002 18.1173 55.1965 17.7515V16.5744H55.159C55.0175 17.0067 54.7496 17.3865 54.3898 17.6647C54.0029 17.9673 53.5227 18.1254 53.0317 18.1119C52.5485 18.1223 52.0729 17.9899 51.6644 17.7315C51.2564 17.4625 50.9202 17.0979 50.685 16.6695C50.4081 16.1642 50.2098 15.6196 50.0969 15.0545C49.9589 14.386 49.8921 13.7048 49.8975 13.0223C49.8927 12.3265 49.9632 11.6323 50.1077 10.9517C50.2241 10.379 50.429 9.82795 50.7151 9.31831C50.9551 8.89074 51.2895 8.52355 51.6928 8.24466C52.0891 7.9818 52.5562 7.8459 53.0317 7.85508C53.6518 7.85508 54.1268 8.01664 54.4566 8.33977C54.7932 8.67585 55.0409 9.0904 55.1773 9.54606H55.2349V8.17793H57.2863V17.5997ZM55.2541 13.0039C55.256 12.5707 55.2208 12.1381 55.149 11.7109C55.0928 11.3512 54.9907 11.0002 54.8453 10.6664C54.732 10.4013 54.561 10.1647 54.3448 9.97401C54.1495 9.80556 53.8994 9.7142 53.6415 9.71707C53.3777 9.7121 53.1212 9.80345 52.9199 9.97401C52.7037 10.1633 52.5346 10.4003 52.4261 10.6664C52.2872 11.0011 52.1914 11.3521 52.1408 11.7109C52.0149 12.5683 52.0149 13.4395 52.1408 14.297C52.1912 14.659 52.2862 15.0135 52.4236 15.3523C52.5305 15.6223 52.6997 15.8633 52.9174 16.0555C53.1187 16.2261 53.3752 16.3174 53.639 16.3125C53.8969 16.3153 54.147 16.224 54.3423 16.0555C54.56 15.8618 54.7311 15.6214 54.8428 15.3523C54.9874 15.0153 55.0894 14.6617 55.1465 14.2995C55.2193 13.8715 55.2553 13.4381 55.2541 13.0039Z" fill="white"/>
<path d="M62.8133 8.40652C62.9718 8.23226 63.165 8.09315 63.3805 7.99817C63.5961 7.90319 63.8291 7.85445 64.0647 7.85509H64.2257C64.2816 7.85755 64.3365 7.87057 64.3875 7.89347L64.2749 10.0967C64.1264 10.057 63.9731 10.0376 63.8194 10.0391C63.5504 10.036 63.2887 10.1268 63.0794 10.296C62.8517 10.4809 62.664 10.7102 62.528 10.9701C62.3688 11.2684 62.2536 11.5881 62.186 11.9194C62.1101 12.276 62.0718 12.6394 62.0717 13.0039V17.8658H59.8877V8.17794H61.9958V10.0399H62.0375C62.2004 9.3186 62.4591 8.77413 62.8133 8.40652Z" fill="white"/>
<path d="M69.5761 16.4217C69.4351 16.9531 69.1832 17.3686 68.8153 17.6647C68.4474 17.9609 67.961 18.1119 67.3537 18.1119C67.0622 18.1098 66.7732 18.0588 66.4986 17.9609C66.2012 17.8561 65.9316 17.685 65.7103 17.4603C65.4582 17.1984 65.261 16.8887 65.1305 16.5494C64.9685 16.1148 64.8912 15.6532 64.9027 15.1896C64.9027 14.5066 65.0262 13.9466 65.2731 13.5095C65.5009 13.0927 65.8267 12.7376 66.2225 12.475C66.6154 12.2188 67.0542 12.0412 67.5147 11.952C67.9741 11.8584 68.4416 11.8106 68.9104 11.8093H69.4426V11.5031C69.4426 10.8569 69.3127 10.3914 69.053 10.1066C68.7933 9.82189 68.4482 9.67952 68.0177 9.67952C67.6685 9.67495 67.3244 9.76365 67.0208 9.93646C66.7223 10.1083 66.4609 10.3377 66.2517 10.6114L65.2256 9.26241C65.5866 8.81529 66.0491 8.46067 66.5745 8.22797C67.0793 7.98944 67.6297 7.86281 68.1879 7.85674C68.7841 7.85674 69.2877 7.95184 69.6987 8.14204C70.1006 8.32269 70.4464 8.60827 70.6998 8.96876C70.97 9.3717 71.154 9.82612 71.2404 10.3035C71.3538 10.8982 71.408 11.5026 71.4022 12.108V17.8641H69.6128V16.4217H69.5761ZM69.4985 13.3259H68.8737C68.6155 13.3251 68.3578 13.3477 68.1037 13.3935C67.8697 13.4318 67.6463 13.5188 67.448 13.6488C67.2535 13.7807 67.0963 13.9606 66.9916 14.171C66.8699 14.4352 66.8127 14.7246 66.8248 15.0152C66.8248 15.5233 66.9358 15.8962 67.1585 16.1373C67.2531 16.2492 67.3709 16.3393 67.5036 16.4014C67.6364 16.4635 67.7811 16.496 67.9276 16.4968C68.1957 16.5051 68.4579 16.4179 68.6676 16.2507C68.8741 16.0812 69.0398 15.8674 69.1523 15.6251C69.2775 15.3559 69.367 15.0715 69.4184 14.7791C69.4734 14.4814 69.5013 14.1793 69.5018 13.8765L69.4985 13.3259Z" fill="white"/>
<path d="M81.2369 13.0039C81.2429 13.6953 81.1764 14.3853 81.0384 15.0628C80.9244 15.6381 80.7224 16.1924 80.4394 16.7062C80.2017 17.1436 79.8635 17.5182 79.4525 17.799C79.0518 18.0605 78.582 18.1961 78.1036 18.1886C77.5474 18.1886 77.088 18.0337 76.7254 17.724C76.3729 17.4261 76.1125 17.034 75.9746 16.5936H75.9379V22.4248H73.8298V8.17792H75.9004V9.54605H75.9388C76.0866 9.09113 76.3402 8.67773 76.6787 8.33976C77.0085 8.01719 77.4835 7.85563 78.1036 7.85507C78.5777 7.84685 79.0431 7.9827 79.4383 8.24466C79.844 8.52585 80.1792 8.89701 80.4177 9.32915C80.7018 9.83978 80.9068 10.3905 81.0259 10.9626C81.17 11.6334 81.2408 12.3178 81.2369 13.0039ZM79.0913 13.0039C79.0931 12.5711 79.0613 12.1388 78.9962 11.7109C78.9456 11.3521 78.8497 11.0011 78.7109 10.6664C78.6027 10.4004 78.4339 10.1633 78.2179 9.97401C78.0164 9.80325 77.7595 9.71188 77.4954 9.71707C77.2378 9.71432 76.988 9.80568 76.793 9.97401C76.5768 10.1648 76.4058 10.4013 76.2925 10.6664C76.1474 11.0002 76.0456 11.3512 75.9896 11.7109C75.8504 12.5673 75.8504 13.4406 75.9896 14.297C76.0452 14.6598 76.1458 15.0143 76.2891 15.3523C76.4009 15.6214 76.572 15.8617 76.7897 16.0555C76.9847 16.2238 77.2345 16.3152 77.4921 16.3125C77.7562 16.3176 78.013 16.2263 78.2145 16.0555C78.432 15.8632 78.6009 15.6222 78.7076 15.3523C78.8456 15.0144 78.9414 14.6608 78.9929 14.2995C79.0592 13.8708 79.0921 13.4377 79.0913 13.0039Z" fill="white"/>
<path d="M88.1483 17.8658V11.7868C88.148 11.5427 88.1349 11.2988 88.1091 11.056C88.0874 10.825 88.0334 10.5981 87.9489 10.382C87.8745 10.1907 87.7497 10.0233 87.5877 9.89728C87.4076 9.77055 87.1904 9.70718 86.9704 9.71708C86.4882 9.71708 86.1061 9.95734 85.8208 10.4395C85.5355 10.9217 85.3954 11.5282 85.3954 12.2656V17.8691H83.2498V3.50627H85.3954V9.67954H85.4329C85.5979 9.18532 85.8899 8.74314 86.2797 8.39734C86.6773 8.03584 87.1803 7.85509 87.7888 7.85509C88.321 7.85509 88.7518 7.96632 89.081 8.18878C89.409 8.40975 89.6715 8.71489 89.841 9.07223C90.0273 9.47125 90.1492 9.89725 90.2022 10.3344C90.2652 10.8163 90.2969 11.3017 90.2973 11.7876V17.8666L88.1483 17.8658Z" fill="white"/>
<path d="M104.573 11.4314C104.303 10.0908 103.129 9.10642 101.5 9.10642C99.3937 9.10642 98.0531 10.7432 98.0531 13.3026C98.0531 15.862 99.3937 17.4987 101.509 17.4987C103.111 17.4987 104.286 16.5936 104.565 15.2463H105.243C104.956 16.9356 103.491 18.1111 101.509 18.1111C98.9933 18.1111 97.374 16.2566 97.374 13.3051C97.374 10.3719 98.9933 8.49159 101.5 8.49159C103.511 8.49159 104.965 9.77964 105.243 11.4339L104.573 11.4314Z" fill="white"/>
<path d="M106.324 13.3051C106.324 10.3544 108.004 8.49159 110.495 8.49159C112.986 8.49159 114.674 10.3544 114.674 13.3051C114.674 16.2557 112.994 18.1111 110.495 18.1111C107.997 18.1111 106.324 16.2482 106.324 13.3051ZM113.985 13.3051C113.985 10.7115 112.601 9.10892 110.493 9.10892C108.386 9.10892 107.002 10.7115 107.002 13.3051C107.002 15.8987 108.386 17.5012 110.493 17.5012C112.599 17.5012 113.985 15.882 113.985 13.3051Z" fill="white"/>
<path d="M116.727 9.20486H115.421V8.6134H116.727V7.27863C116.727 5.74616 117.484 5.10214 118.799 5.10214C119.031 5.09657 119.262 5.12296 119.487 5.18055V5.77286C119.273 5.71831 119.054 5.69194 118.833 5.69444C117.937 5.69444 117.406 6.13825 117.406 7.32201V8.6134H119.416V9.20486H117.406V17.9893H116.727V9.20486Z" fill="white"/>
<path d="M121.393 9.20486H120.087V8.61339H121.393V7.27863C121.393 5.74616 122.15 5.10213 123.465 5.10213C123.697 5.09646 123.928 5.12285 124.152 5.18055V5.77285C123.939 5.71825 123.72 5.69189 123.5 5.69443C122.603 5.69443 122.072 6.13824 122.072 7.32201V8.61339H124.083V9.20486H122.072V17.9893H121.393V9.20486Z" fill="white"/>
<path d="M132.64 15.369C132.336 16.954 130.888 18.1111 128.819 18.1111C126.277 18.1111 124.64 16.3258 124.64 13.3143C124.64 10.4061 126.277 8.49159 128.749 8.49159C131.168 8.49159 132.753 10.2935 132.753 13.0181V13.4102H125.328V13.4444C125.328 16.0038 126.722 17.5012 128.828 17.5012C130.543 17.5012 131.684 16.5961 131.954 15.369H132.64ZM125.337 12.8354H132.066C132.057 10.6155 130.717 9.10058 128.74 9.10058C126.79 9.10058 125.438 10.5972 125.337 12.8354Z" fill="white"/>
<path d="M141.885 15.369C141.581 16.954 140.134 18.1111 138.064 18.1111C135.522 18.1111 133.885 16.3258 133.885 13.3143C133.885 10.4061 135.522 8.49159 137.995 8.49159C140.414 8.49159 141.999 10.2935 141.999 13.0181V13.4102H134.574V13.4444C134.574 16.0038 135.967 17.5012 138.078 17.5012C139.793 17.5012 140.934 16.5961 141.203 15.369H141.885ZM134.582 12.8354H141.312C141.302 10.6155 139.962 9.10058 137.985 9.10058C136.033 9.10058 134.686 10.5972 134.582 12.8354Z" fill="white"/>
</svg>
