<svg width="248" height="49" viewBox="0 0 248 49" fill="none" xmlns="http://www.w3.org/2000/svg">
<path d="M5.68118 14.4324L5.80535 14.6397C4.85412 15.5518 4.37103 16.9081 4.23587 18.2461C3.76136 22.6524 7.72304 28.4611 10.3819 32.278C12.4229 35.2149 15.1143 38.3676 14.6812 42.3796C14.2985 45.8704 10.7707 48.3328 7.51315 48.3178L7.54372 48.0788C9.42138 47.7988 10.8428 46.5082 11.0904 44.1568C11.7168 38.3711 0.907206 30.3531 1.81776 21.8924C2.12261 18.9209 3.1706 16.2284 5.68118 14.4324ZM4.25278 6.5031C4.63554 3.0123 8.16336 0.549895 11.4209 0.564927L11.3903 0.803912C9.51263 1.08394 8.10503 2.37552 7.84361 4.72592C7.21717 10.5116 18.0643 18.1918 17.1537 26.6526C16.8351 29.623 15.7506 32.6393 13.239 34.4494L13.1149 34.2421C14.0661 33.3299 14.5492 31.9737 14.6843 30.6357C15.1589 26.2294 11.0622 20.3687 8.40428 16.5376C6.36233 13.6148 3.86014 10.1351 4.25278 6.5031Z" fill="white"/>
<path d="M45.8172 22.7111C45.8268 23.9186 45.7096 25.1238 45.4675 26.3069C45.2696 27.3118 44.9172 28.28 44.4229 29.1771C44.0077 29.9414 43.4164 30.5957 42.6978 31.0857C41.9981 31.5426 41.1775 31.7796 40.3419 31.7661C39.3706 31.7661 38.5693 31.4956 37.9379 30.9546C37.3215 30.4351 36.8665 29.7501 36.6267 28.9804H36.5582V39.1645H32.8779V14.2826H36.4956V16.672H36.5597C36.8201 15.8778 37.2638 15.1561 37.8549 14.5652C38.4309 14.0019 39.2599 13.7197 40.3419 13.7188C41.1728 13.7034 41.9888 13.9406 42.6818 14.3992C43.3879 14.8905 43.9716 15.5375 44.3879 16.2903C44.8845 17.182 45.2431 18.1438 45.4515 19.143C45.7032 20.3155 45.8258 21.512 45.8172 22.7111ZM42.067 22.7111C42.07 21.9552 42.0145 21.2002 41.9009 20.4528C41.8122 19.8264 41.6453 19.2136 41.4041 18.6287C41.2135 18.1646 40.9183 17.7507 40.5415 17.4194C40.1896 17.1212 39.741 16.9616 39.2798 16.9707C38.8295 16.9659 38.3928 17.1255 38.0516 17.4194C37.6735 17.7521 37.3747 18.1653 37.1774 18.6287C36.9223 19.2113 36.7435 19.8244 36.6456 20.4528C36.4044 21.9487 36.4044 23.4735 36.6456 24.9694C36.7438 25.6035 36.9215 26.2228 37.1745 26.8124C37.3691 27.2828 37.668 27.7028 38.0487 28.0407C38.3899 28.3346 38.8265 28.4942 39.2769 28.4894C39.7381 28.4985 40.1867 28.3389 40.5386 28.0407C40.919 27.7044 41.2154 27.2838 41.4041 26.8124C41.6439 26.2221 41.8107 25.6046 41.9009 24.9738C42.0148 24.225 42.0703 23.4685 42.067 22.7111Z" fill="white"/>
<path d="M56.335 28.6803C56.0903 29.6084 55.6503 30.3339 55.0078 30.8511C54.3652 31.3684 53.5158 31.6321 52.4537 31.6321C51.9451 31.6286 51.4408 31.5394 50.9618 31.3684C50.4421 31.185 49.9709 30.8861 49.5835 30.4942C49.1436 30.0372 48.8007 29.4961 48.5753 28.9032C48.2887 28.1426 48.1531 27.3335 48.1761 26.5211C48.1761 25.3283 48.3917 24.3502 48.823 23.5868C49.2212 22.8592 49.7902 22.2392 50.481 21.7801C51.1672 21.3327 51.9336 21.0225 52.7378 20.8666C53.5382 20.7041 54.3527 20.6211 55.1695 20.6189H56.0976V20.09C56.0976 18.9614 55.8712 18.1484 55.4186 17.6511C54.966 17.1538 54.3628 16.9051 53.6091 16.9051C52.9992 16.8976 52.3983 17.0525 51.868 17.3539C51.3471 17.6541 50.891 18.0547 50.5261 18.5326L48.7341 16.1767C49.3637 15.3941 50.1715 14.7736 51.09 14.3671C51.9715 13.9504 52.9327 13.7292 53.9078 13.7188C54.948 13.7188 55.8275 13.8849 56.5463 14.217C57.2482 14.5325 57.8521 15.0313 58.2947 15.6609C58.766 16.3649 59.0873 17.1584 59.2388 17.992C59.437 19.0306 59.5316 20.0862 59.5214 21.1434V31.1964H56.3962V28.6803H56.335ZM56.2025 23.2735H55.1083C54.6574 23.2723 54.2073 23.3118 53.7635 23.3915C53.3554 23.4587 52.9658 23.6106 52.6198 23.8373C52.2798 24.0674 52.0053 24.3816 51.8228 24.7494C51.6078 25.2122 51.5064 25.7197 51.5271 26.2297C51.5271 27.117 51.7194 27.7682 52.1099 28.1893C52.2753 28.3846 52.481 28.5418 52.7129 28.6502C52.9447 28.7585 53.1972 28.8155 53.4532 28.8172C53.9217 28.8316 54.3802 28.6793 54.747 28.3874C55.1077 28.0914 55.397 27.7179 55.5935 27.2947C55.8076 26.8221 55.9589 26.3234 56.0437 25.8115C56.1396 25.2915 56.1884 24.7639 56.1894 24.2351L56.2025 23.2735Z" fill="white"/>
<path d="M68.9362 14.6818C69.2129 14.3774 69.5504 14.1344 69.9268 13.9685C70.3032 13.8026 70.7103 13.7176 71.1216 13.7188H71.4014C71.4995 13.7227 71.5959 13.7455 71.6855 13.7858L71.4873 17.6336C71.2284 17.5645 70.9613 17.5307 70.6933 17.5331C70.2229 17.5272 69.7652 17.6859 69.3995 17.9818C69.0017 18.3046 68.674 18.7052 68.4365 19.159C68.1579 19.6798 67.9566 20.2383 67.8391 20.8171C67.7059 21.4396 67.639 22.0745 67.6395 22.7111V31.2023H63.8252V14.2826H67.5084V17.5345H67.5754C67.8629 16.2748 68.3165 15.3238 68.9362 14.6818Z" fill="white"/>
<path d="M80.7449 28.6803C80.5001 29.6083 80.0601 30.3339 79.4176 30.8511C78.775 31.3684 77.9242 31.6321 76.8635 31.6321C76.3545 31.6285 75.8496 31.5393 75.3701 31.3684C74.8509 31.1851 74.3801 30.8862 73.9933 30.4942C73.553 30.0373 73.2095 29.4961 72.9836 28.9032C72.6988 28.1447 72.5632 27.3383 72.5844 26.5283C72.5844 25.3356 72.7996 24.3575 73.2299 23.594C73.6296 22.8666 74.1994 22.2467 74.8908 21.7874C75.5762 21.3395 76.3422 21.0292 77.1462 20.8739C77.9484 20.7105 78.7649 20.627 79.5837 20.6247H80.5117V20.09C80.5117 18.9614 80.2849 18.1484 79.8313 17.6511C79.3777 17.1538 78.775 16.9051 78.0233 16.9051C77.4133 16.8974 76.8124 17.0522 76.2822 17.3539C75.7613 17.6541 75.3052 18.0547 74.9403 18.5325L73.1468 16.1766C73.7774 15.3958 74.585 14.7764 75.5027 14.37C76.3857 13.9531 77.3484 13.732 78.3248 13.7217C79.3612 13.7217 80.2398 13.8878 80.9605 14.2199C81.6625 14.5353 82.2665 15.034 82.7088 15.6638C83.1818 16.3671 83.5038 17.1609 83.6544 17.9949C83.8521 19.0335 83.9463 20.0891 83.9356 21.1463V31.1993H80.8119V28.6803H80.7449ZM80.6137 23.2735H79.5181C79.0672 23.2722 78.6171 23.3117 78.1733 23.3915C77.7652 23.4587 77.3756 23.6106 77.0296 23.8373C76.6896 24.0674 76.4151 24.3816 76.2327 24.7494C76.0181 25.2125 75.9157 25.7196 75.934 26.2297C75.934 27.1169 76.1278 27.7682 76.5168 28.1893C76.6825 28.3846 76.8884 28.5418 77.1205 28.6502C77.3526 28.7586 77.6054 28.8155 77.8615 28.8172C78.3296 28.8314 78.7875 28.6791 79.1539 28.3874C79.5142 28.091 79.8034 27.7176 80.0004 27.2947C80.2179 26.8243 80.3736 26.3277 80.4637 25.8173C80.5596 25.2973 80.6084 24.7697 80.6094 24.2409L80.6137 23.2735Z" fill="white"/>
<path d="M100.051 30.7375C100.063 31.8919 99.9405 33.0438 99.6868 34.1701C99.4745 35.1272 99.0673 36.0303 98.4907 36.8232C97.9378 37.566 97.2081 38.159 96.3679 38.5482C95.5053 38.9581 94.4549 39.1631 93.2165 39.1631C92.0647 39.1673 90.9244 38.9357 89.8655 38.4827C88.8712 38.076 87.9766 37.4592 87.2429 36.6746L89.2666 33.9894C89.7585 34.5228 90.3356 34.9708 90.9742 35.3153C91.6322 35.6705 92.3696 35.853 93.1174 35.8456C93.6622 35.8649 94.2016 35.7316 94.6749 35.461C95.0975 35.212 95.4488 34.8582 95.6948 34.4338C95.965 33.9612 96.1504 33.4449 96.2426 32.9084C96.3546 32.2794 96.4078 31.6414 96.4014 31.0027V28.9469H96.3358C96.0888 29.7018 95.6208 30.3652 94.9925 30.8511C94.3168 31.3795 93.478 31.6557 92.6206 31.6321C91.7766 31.6502 90.946 31.4191 90.2326 30.9677C89.52 30.4978 88.9329 29.8612 88.5221 29.113C88.0385 28.2304 87.6921 27.2792 87.495 26.2923C87.254 25.1249 87.1373 23.9352 87.1468 22.7432C87.1383 21.528 87.2614 20.3156 87.5139 19.127C87.7172 18.1268 88.0751 17.1643 88.5746 16.2743C88.9938 15.5275 89.5778 14.8862 90.2822 14.3991C90.9744 13.9401 91.7901 13.7027 92.6206 13.7187C93.7036 13.7187 94.5331 14.0009 95.1091 14.5652C95.6969 15.1522 96.1295 15.8762 96.3679 16.672H96.4684V14.2826H100.051V30.7375ZM96.5019 22.7111C96.5053 21.9545 96.4438 21.199 96.3183 20.4528C96.2202 19.8246 96.042 19.2116 95.788 18.6287C95.5901 18.1656 95.2915 17.7525 94.9138 17.4194C94.5727 17.1252 94.136 16.9657 93.6856 16.9707C93.2249 16.962 92.7769 17.1215 92.4253 17.4194C92.0477 17.7499 91.7523 18.164 91.5628 18.6287C91.3204 19.2133 91.153 19.8262 91.0645 20.4528C90.8447 21.9503 90.8447 23.4719 91.0645 24.9694C91.1527 25.6017 91.3186 26.2208 91.5584 26.8124C91.7452 27.2841 92.0407 27.7049 92.421 28.0407C92.7725 28.3386 93.2205 28.4981 93.6812 28.4894C94.1316 28.4944 94.5684 28.3349 94.9095 28.0407C95.2896 27.7023 95.5885 27.2825 95.7836 26.8124C96.0361 26.224 96.2143 25.6063 96.314 24.9738C96.4412 24.2263 96.5041 23.4693 96.5019 22.7111Z" fill="white"/>
<path d="M109.704 14.6818C109.98 14.3775 110.318 14.1345 110.694 13.9686C111.071 13.8028 111.478 13.7176 111.889 13.7188H112.17C112.268 13.7231 112.364 13.7458 112.453 13.7858L112.256 17.6336C111.997 17.5643 111.729 17.5305 111.461 17.5331C110.991 17.5276 110.534 17.6863 110.168 17.9818C109.771 18.3046 109.443 18.7052 109.205 19.159C108.927 19.68 108.726 20.2385 108.608 20.8171C108.475 21.4397 108.408 22.0745 108.408 22.7111V31.2023H104.594V14.2826H108.276V17.5345H108.349C108.633 16.2748 109.085 15.3238 109.704 14.6818Z" fill="white"/>
<path d="M121.514 28.6803C121.268 29.6083 120.828 30.3339 120.185 30.8511C119.543 31.3684 118.693 31.6321 117.633 31.6321C117.124 31.6285 116.619 31.5393 116.139 31.3684C115.62 31.1854 115.149 30.8865 114.762 30.4942C114.322 30.0367 113.978 29.4958 113.75 28.9032C113.467 28.1442 113.332 27.3381 113.352 26.5283C113.352 25.3356 113.568 24.3575 113.999 23.594C114.397 22.8661 114.966 22.246 115.657 21.7874C116.343 21.34 117.11 21.0297 117.914 20.8739C118.716 20.7105 119.533 20.627 120.351 20.6247H121.281V20.09C121.281 18.9614 121.054 18.1484 120.6 17.6511C120.147 17.1538 119.544 16.9051 118.792 16.9051C118.182 16.8971 117.581 17.052 117.051 17.3539C116.53 17.654 116.073 18.0547 115.708 18.5325L113.916 16.1766C114.546 15.3958 115.354 14.7764 116.272 14.37C117.153 13.9534 118.115 13.7323 119.09 13.7217C120.131 13.7217 121.01 13.8878 121.728 14.2199C122.43 14.5354 123.034 15.0342 123.476 15.6638C123.948 16.3675 124.27 17.1612 124.421 17.9949C124.619 19.0335 124.713 20.0891 124.703 21.1463V31.1993H121.578V28.6803H121.514ZM121.378 23.2735H120.287C119.836 23.2721 119.386 23.3116 118.942 23.3915C118.534 23.4584 118.144 23.6103 117.797 23.8373C117.458 24.0678 117.183 24.3819 117 24.7494C116.788 25.2108 116.688 25.7162 116.709 26.2238C116.709 27.1111 116.903 27.7624 117.292 28.1834C117.457 28.3789 117.663 28.5363 117.894 28.6447C118.126 28.7531 118.379 28.81 118.635 28.8114C119.103 28.8258 119.561 28.6735 119.927 28.3816C120.288 28.0856 120.577 27.7121 120.774 27.2889C120.992 26.8188 121.149 26.3221 121.239 25.8115C121.335 25.2915 121.383 24.7639 121.384 24.2351L121.378 23.2735Z" fill="white"/>
<path d="M141.879 22.7111C141.89 23.9185 141.773 25.1237 141.532 26.3069C141.333 27.3117 140.981 28.2798 140.486 29.1771C140.071 29.941 139.481 30.5952 138.763 31.0857C138.063 31.5423 137.242 31.7792 136.407 31.7661C135.436 31.7661 134.633 31.4956 134 30.9546C133.384 30.4344 132.929 29.7496 132.689 28.9804H132.625V39.1645H128.943V14.2826H132.559V16.672H132.626C132.884 15.8775 133.327 15.1555 133.918 14.5652C134.494 14.0019 135.324 13.7197 136.407 13.7188C137.235 13.7044 138.048 13.9416 138.738 14.3992C139.447 14.8903 140.032 15.5385 140.448 16.2932C140.945 17.185 141.303 18.1468 141.511 19.1459C141.762 20.3175 141.886 21.5129 141.879 22.7111ZM138.132 22.7111C138.135 21.9552 138.079 21.2002 137.966 20.4528C137.877 19.8262 137.71 19.2133 137.468 18.6287C137.279 18.1641 136.984 17.75 136.606 17.4194C136.255 17.1212 135.806 16.9616 135.345 16.9707C134.895 16.9659 134.459 17.1254 134.118 17.4194C133.74 17.7526 133.442 18.1657 133.244 18.6287C132.99 19.2117 132.813 19.8247 132.715 20.4528C132.472 21.9485 132.472 23.4737 132.715 24.9694C132.812 25.6031 132.988 26.2222 133.238 26.8124C133.433 27.2824 133.732 27.7023 134.112 28.0407C134.453 28.3346 134.889 28.4942 135.339 28.4894C135.8 28.4985 136.249 28.3389 136.601 28.0407C136.98 27.7048 137.275 27.284 137.462 26.8124C137.703 26.2224 137.87 25.6048 137.96 24.9738C138.076 24.2251 138.133 23.4686 138.132 22.7111Z" fill="white"/>
<path d="M153.951 31.2023V20.5854C153.95 20.1591 153.928 19.7331 153.883 19.3091C153.845 18.9056 153.75 18.5094 153.603 18.1319C153.473 17.7979 153.255 17.5054 152.972 17.2854C152.657 17.0641 152.278 16.9534 151.894 16.9707C151.052 16.9707 150.384 17.3903 149.886 18.2324C149.388 19.0745 149.143 20.1337 149.143 21.4217V31.2081H145.396V6.12363H149.143V16.9051H149.209C149.497 16.042 150.007 15.2697 150.687 14.6658C151.382 14.0344 152.26 13.7188 153.323 13.7188C154.253 13.7188 155.005 13.913 155.58 14.3015C156.153 14.6874 156.611 15.2204 156.907 15.8445C157.233 16.5413 157.445 17.2854 157.538 18.0488C157.648 18.8904 157.704 19.7382 157.704 20.5869V31.2037L153.951 31.2023Z" fill="white"/>
<path d="M182.637 19.9647C182.165 17.6234 180.113 15.9042 177.269 15.9042C173.591 15.9042 171.249 18.7627 171.249 23.2327C171.249 27.7026 173.591 30.5612 177.285 30.5612C180.083 30.5612 182.136 28.9804 182.622 26.6274H183.807C183.306 29.5778 180.747 31.6306 177.285 31.6306C172.891 31.6306 170.063 28.3918 170.063 23.2371C170.063 18.1144 172.891 14.8304 177.269 14.8304C180.782 14.8304 183.322 17.08 183.807 19.9691L182.637 19.9647Z" fill="white"/>
<path d="M185.694 23.2371C185.694 18.0838 188.628 14.8304 192.979 14.8304C197.329 14.8304 200.277 18.0838 200.277 23.2371C200.277 28.3903 197.342 31.6306 192.979 31.6306C188.615 31.6306 185.694 28.3772 185.694 23.2371ZM199.073 23.2371C199.073 18.7074 196.656 15.9086 192.976 15.9086C189.296 15.9086 186.879 18.7074 186.879 23.2371C186.879 27.7668 189.296 30.5656 192.975 30.5656C196.653 30.5656 199.073 27.7376 199.073 23.2371Z" fill="white"/>
<path d="M203.862 16.0761H201.582V15.0431H203.862V12.712C203.862 10.0356 205.185 8.91079 207.481 8.91079C207.886 8.90107 208.29 8.94715 208.682 9.04774V10.0822C208.309 9.98691 207.926 9.94087 207.541 9.94523C205.975 9.94523 205.048 10.7203 205.048 12.7878V15.0431H208.559V16.0761H205.048V31.4179H203.862V16.0761Z" fill="white"/>
<path d="M212.011 16.0761H209.731V15.0431H212.011V12.712C212.011 10.0356 213.334 8.91078 215.63 8.91078C216.035 8.90088 216.439 8.94697 216.831 9.04774V10.0822C216.459 9.98682 216.076 9.94078 215.691 9.94523C214.125 9.94523 213.197 10.7203 213.197 12.7878V15.0431H216.71V16.0761H213.197V31.4179H212.011V16.0761Z" fill="white"/>
<path d="M231.655 26.8416C231.123 29.6098 228.595 31.6306 224.981 31.6306C220.541 31.6306 217.683 28.5127 217.683 23.2531C217.683 18.1741 220.541 14.8304 224.858 14.8304C229.084 14.8304 231.852 17.9774 231.852 22.7359V23.4206H218.885V23.4804C218.885 27.9503 221.318 30.5656 224.997 30.5656C227.992 30.5656 229.984 28.9848 230.456 26.8416H231.655ZM218.899 22.4168H230.651C230.637 18.5398 228.295 15.894 224.844 15.894C221.437 15.894 219.077 18.5078 218.899 22.4168Z" fill="white"/>
<path d="M247.801 26.8416C247.27 29.6098 244.742 31.6306 241.127 31.6306C236.688 31.6306 233.829 28.5127 233.829 23.2531C233.829 18.1741 236.688 14.8304 241.006 14.8304C245.231 14.8304 247.999 17.9774 247.999 22.7359V23.4206H235.033V23.4804C235.033 27.9503 237.464 30.5656 241.152 30.5656C244.147 30.5656 246.139 28.9848 246.61 26.8416H247.801ZM235.046 22.4168H246.799C246.783 18.5398 244.442 15.894 240.99 15.894C237.581 15.894 235.228 18.5078 235.046 22.4168Z" fill="white"/>
</svg>
