<svg width="44" height="60" viewBox="0 0 44 60" fill="none" xmlns="http://www.w3.org/2000/svg">
<path d="M18.9154 53.8833L18.9168 53.8854C20.4071 56.038 23.5927 56.0383 25.0833 53.8854L25.0847 53.8833C27.5105 50.3666 29.5809 47.4171 31.352 44.8939C32.0921 43.8396 32.7799 42.8598 33.4196 41.944C36.6002 37.3907 38.6338 34.3666 39.8513 31.7805C41.1141 29.0985 41.5 26.892 41.5 24C41.5 13.2304 32.7696 4.5 22 4.5C11.2304 4.5 2.5 13.2304 2.5 24C2.5 26.8363 2.87093 29.0167 4.08155 31.6367C5.25003 34.1655 7.19744 37.0912 10.233 41.4461C10.9703 42.5038 11.7735 43.648 12.6498 44.8965C14.4201 47.4184 16.4889 50.3656 18.9154 53.8833Z" stroke="#118181" stroke-width="3"/>
<path d="M19.327 53.5994L19.3279 53.6008C20.6194 55.4663 23.3805 55.4665 24.6722 53.6008L24.6731 53.5994C27.1001 50.0809 29.1725 47.1286 30.9441 44.6048C31.6838 43.5511 32.371 42.572 33.0097 41.6577C36.1965 37.0956 38.203 34.1078 39.399 31.5675C40.6251 28.9634 41 26.8319 41 24C41 13.5066 32.4934 5 22 5C11.5066 5 3 13.5066 3 24C3 26.7782 3.36068 28.8845 4.53544 31.4269C5.6821 33.9085 7.60233 36.7977 10.6432 41.1602C11.3788 42.2156 12.1813 43.3587 13.0572 44.6065C14.8281 47.1294 16.8995 50.0803 19.327 53.5994Z" fill="#0D4749" stroke="white" stroke-width="2"/>
<path d="M20.0219 21.5611L20.092 21.678C19.5553 22.1927 19.2827 22.9579 19.2065 23.7128C18.9387 26.1989 21.1739 29.4762 22.6741 31.6297C23.8256 33.2867 25.3442 35.0655 25.0998 37.3291C24.8838 39.2986 22.8934 40.688 21.0555 40.6795L21.0728 40.5446C22.1322 40.3866 22.9341 39.6585 23.0738 38.3318C23.4273 35.0675 17.3284 30.5437 17.8421 25.7701C18.0141 24.0935 18.6054 22.5744 20.0219 21.5611ZM19.216 17.0873C19.4319 15.1178 21.4224 13.7285 23.2603 13.7369L23.243 13.8718C22.1836 14.0298 21.3895 14.7585 21.242 16.0846C20.8885 19.349 27.0086 23.6822 26.4948 28.4558C26.315 30.1318 25.7032 31.8335 24.2861 32.8548L24.2161 32.7379C24.7527 32.2232 25.0253 31.458 25.1016 30.7031C25.3693 28.217 23.0579 24.9104 21.5583 22.7489C20.4062 21.0998 18.9945 19.1365 19.216 17.0873Z" fill="white"/>
</svg>
