<svg width="30" height="19" viewBox="0 0 30 19" fill="none" xmlns="http://www.w3.org/2000/svg">
<path d="M18.3058 0.296073C19.1396 0.422087 19.9561 0.64593 20.7628 0.910915C22.1712 1.37448 23.5002 2.01847 24.7501 2.85392C24.837 2.91158 24.9531 2.94819 25.0556 2.94819C26.5236 2.95467 27.9911 2.9524 29.458 2.95369C29.5762 2.95369 29.6938 2.96698 29.8117 2.9741C29.8117 3.00488 29.8159 3.01783 29.8111 3.02496C29.7426 3.13769 29.6732 3.24881 29.6044 3.36121C29.1064 4.17755 28.6809 5.03146 28.4297 5.97543C28.4024 6.07682 28.3966 6.16169 28.4609 6.26114C29.7677 8.26699 30.1848 10.4692 29.6386 12.843C29.1598 14.925 28.0433 16.5482 26.3467 17.6976C25.1341 18.5194 23.7945 18.9108 22.3634 18.9192C21.7621 18.9231 21.1638 18.8366 20.5764 18.674C19.1453 18.2771 17.9185 17.5146 16.9074 16.3597C16.7741 16.2081 16.6486 16.0497 16.5065 15.8783C15.9719 16.73 15.4457 17.5677 14.9069 18.4274C14.3701 17.5703 13.8512 16.7407 13.3336 15.9143C13.2978 15.9344 13.2875 15.9366 13.2806 15.9438C13.2687 15.9541 13.2587 15.9668 13.2493 15.9788C12.0264 17.5223 10.488 18.4686 8.61384 18.7851C7.57127 18.9616 6.5387 18.8981 5.52613 18.5998C4.09108 18.1783 2.87151 17.3691 1.88622 16.1751C0.923359 15.0076 0.324487 13.6522 0.0996064 12.1112C-0.157703 10.6729 0.155675 9.28611 0.233868 8.94954C0.460567 7.97123 0.855774 7.07294 1.39828 6.24689C1.43646 6.18826 1.4498 6.08459 1.43161 6.01462C1.21037 5.14743 0.829104 4.35863 0.382677 3.6032C0.269327 3.4111 0.133551 3.23326 0.00807831 3.04893C0.00807831 3.02788 0.00807831 3.00617 0.00807831 2.98479C0.0332334 2.98803 0.0580854 2.99322 0.0826343 2.99322C1.58467 2.99386 3.08639 2.99451 4.58842 2.99127C4.65389 2.99127 4.72662 2.96244 4.78239 2.92422C5.83769 2.20053 6.96209 1.62715 8.14347 1.18076C8.99541 0.859408 9.86523 0.608677 10.7523 0.425002C11.6112 0.247481 12.4747 0.12244 13.3472 0.0608911C15.4745 -0.114038 17.1747 0.126651 18.3058 0.296073ZM16.4228 10.899C16.4228 14.4245 19.099 17.3047 22.3855 17.291C25.6844 17.2784 28.3485 14.4792 28.346 10.9149C28.3436 7.24172 25.5559 4.48043 22.2576 4.55202C19.0014 4.62426 16.4525 7.4296 16.4228 10.899ZM7.47883 4.52773C4.2705 4.49793 1.47313 7.35995 1.5292 11.0056C1.58133 14.4054 4.20291 17.2875 7.54551 17.2567C10.8139 17.2269 13.4409 14.3743 13.4469 10.9198C13.4521 7.37065 10.7929 4.52773 7.47883 4.52773ZM7.77463 2.86461C9.58701 2.98285 11.1791 3.65794 12.5241 4.96537C13.8664 6.27021 14.6529 7.89802 14.9387 9.8122C15.2327 7.9207 15.9985 6.30812 17.3157 5.01623C18.635 3.72306 20.2058 3.0444 21.9885 2.90089C19.873 1.8957 17.6424 1.46874 15.3463 1.42145C12.7368 1.3667 10.1986 1.77778 7.77463 2.86461Z" fill="white"/>
<path d="M22.3731 6.87558C24.4143 6.87201 26.0676 8.62972 26.0676 10.8092C26.0676 12.9971 24.4425 14.6884 22.5253 14.7665C20.3841 14.8543 18.6708 13.0308 18.6714 10.8189C18.6732 8.58178 20.3986 6.83865 22.3731 6.87558ZM24.7807 10.8189C24.7798 9.39682 23.7042 8.24099 22.3828 8.24099C21.0463 8.24099 19.9582 9.39066 19.9528 10.8086C19.9479 12.2203 21.0414 13.3949 22.3655 13.3988C23.6918 13.4043 24.7813 12.2384 24.7807 10.8189Z" fill="white"/>
<path d="M7.39977 6.8756C9.43976 6.87334 11.0954 8.63428 11.0903 10.8134C11.0845 13.0192 9.45794 14.6735 7.57434 14.7652C5.42465 14.8702 3.69016 13.0386 3.6941 10.8147C3.69834 8.56172 5.43556 6.83803 7.39977 6.8756ZM9.80466 10.8102C9.80072 9.37935 8.71814 8.23875 7.36674 8.24134C6.06322 8.24393 4.97095 9.41984 4.97398 10.8183C4.97731 12.233 6.06837 13.3962 7.39614 13.4001C8.71572 13.4034 9.80799 12.2287 9.80466 10.8102Z" fill="white"/>
<path d="M22.375 9.51025C23.0514 9.50961 23.6061 10.1027 23.5997 10.8216C23.593 11.542 23.0478 12.1258 22.3826 12.1261C21.6976 12.1261 21.1469 11.5475 21.1484 10.8306C21.1497 10.0869 21.6846 9.5109 22.375 9.51025Z" fill="white"/>
<path d="M7.39304 9.49902C8.07981 9.49838 8.6317 10.0847 8.63443 10.8165C8.63716 11.5421 8.08011 12.1379 7.39668 12.1395C6.69688 12.1411 6.15711 11.5632 6.15772 10.8113C6.15772 10.073 6.69628 9.5 7.39304 9.49902Z" fill="white"/>
</svg>
