<svg width="30" height="19" viewBox="0 0 30 19" fill="none" xmlns="http://www.w3.org/2000/svg">
<path d="M29.4079 16.2838C29.373 16.2013 29.3404 16.1329 29.3102 16.0781C28.8096 15.0906 27.8531 13.8785 26.4412 12.4414L26.4114 12.4085L26.3965 12.3924L26.3814 12.3758H26.3662C25.7254 11.7067 25.3196 11.2567 25.1497 11.0264C24.8388 10.5876 24.7691 10.1434 24.9391 9.69338C25.0591 9.35335 25.5101 8.63526 26.2909 7.53813C26.7017 6.95668 27.0269 6.49068 27.2672 6.13958C28.9997 3.61647 29.7508 2.00417 29.5203 1.30205L29.4309 1.13797C29.3707 1.03919 29.2155 0.948824 28.9655 0.866411C28.7148 0.784171 28.3945 0.77057 28.0039 0.825378L23.678 0.858112C23.608 0.83091 23.5079 0.833446 23.3775 0.866411C23.2473 0.899376 23.1822 0.915917 23.1822 0.915917L23.1069 0.957123L23.0471 1.00663C22.9971 1.03936 22.942 1.09694 22.8818 1.17924C22.822 1.26125 22.772 1.35749 22.732 1.46716C22.261 2.79447 21.7256 4.02854 21.1246 5.1693C20.7541 5.84952 20.4138 6.43904 20.103 6.93818C19.7927 7.43716 19.5323 7.80479 19.3222 8.04045C19.1117 8.27633 18.9218 8.46531 18.7513 8.60806C18.581 8.75087 18.451 8.81121 18.361 8.78914C18.2707 8.76706 18.1858 8.74516 18.1053 8.72326C17.9652 8.62448 17.8525 8.49014 17.7676 8.32013C17.6822 8.15012 17.6248 7.93613 17.5947 7.67835C17.5649 7.42039 17.5472 7.19851 17.5421 7.01195C17.5374 6.82563 17.5396 6.56208 17.5498 6.22205C17.5602 5.88186 17.5649 5.65168 17.5649 5.53099C17.5649 5.11409 17.5723 4.66162 17.5872 4.17348C17.6023 3.68534 17.6146 3.29858 17.6248 3.01365C17.635 2.72843 17.6398 2.42667 17.6398 2.10854C17.6398 1.79042 17.6221 1.54093 17.5872 1.35985C17.5526 1.179 17.4997 1.00346 17.4299 0.833273C17.3596 0.66326 17.2568 0.531745 17.1219 0.438382C16.9868 0.345134 16.8187 0.271135 16.6188 0.216154C16.088 0.0845814 15.4121 0.0134065 14.5908 0.00234121C12.7284 -0.0195588 11.5316 0.112187 11.0009 0.397405C10.7906 0.517913 10.6003 0.682566 10.4302 0.890847C10.2499 1.13227 10.2247 1.26401 10.3549 1.28568C10.9558 1.38429 11.3812 1.62017 11.6316 1.99311L11.7218 2.19073C11.792 2.33331 11.8621 2.58573 11.9322 2.94766C12.0022 3.30959 12.0474 3.70995 12.0673 4.14853C12.1173 4.94943 12.1173 5.63502 12.0673 6.20534C12.0172 6.77589 11.9698 7.22006 11.9246 7.53819C11.8794 7.85631 11.8119 8.1141 11.7218 8.31149C11.6316 8.50893 11.5716 8.62961 11.5415 8.67341C11.5114 8.71721 11.4864 8.74482 11.4665 8.75565C11.3363 8.81029 11.201 8.83812 11.0609 8.83812C10.9206 8.83812 10.7504 8.76124 10.5502 8.6076C10.35 8.45395 10.1422 8.24291 9.92691 7.97411C9.71158 7.70526 9.46873 7.32956 9.19826 6.84695C8.92801 6.36435 8.64759 5.79397 8.35719 5.13582L8.11692 4.65851C7.96671 4.35145 7.76153 3.90434 7.50117 3.3176C7.24064 2.73062 7.01037 2.16283 6.81018 1.61435C6.73016 1.384 6.60995 1.20863 6.44975 1.08795L6.37457 1.03844C6.32459 0.994641 6.24436 0.948133 6.1343 0.898569C6.02408 0.849064 5.90908 0.813563 5.78881 0.79172L1.67317 0.824455C1.25261 0.824455 0.96725 0.928826 0.816995 1.13728L0.756862 1.23589C0.726822 1.29081 0.71167 1.37853 0.71167 1.49926C0.71167 1.61994 0.74171 1.76806 0.801844 1.94343C1.40265 3.49026 2.05602 4.98205 2.76194 6.41904C3.46786 7.85602 4.0813 9.01355 4.60187 9.89059C5.12256 10.7683 5.65329 11.5966 6.19407 12.3752C6.73485 13.1541 7.09281 13.6532 7.26795 13.8725C7.4433 14.0922 7.58103 14.2565 7.68115 14.3661L8.05673 14.761C8.29705 15.0243 8.64996 15.3397 9.11561 15.7071C9.58137 16.0747 10.097 16.4366 10.6628 16.7934C11.2286 17.1496 11.887 17.4403 12.6381 17.6651C13.3891 17.8902 14.12 17.9805 14.8311 17.9369H16.5585C16.9088 17.9038 17.1742 17.7831 17.3546 17.5748L17.4144 17.4924C17.4546 17.4269 17.4922 17.3252 17.5269 17.1883C17.5621 17.0512 17.5795 16.9001 17.5795 16.7358C17.5693 16.2642 17.602 15.8392 17.677 15.4608C17.7518 15.0825 17.8372 14.7973 17.9326 14.6052C18.028 14.4133 18.1356 14.2513 18.2554 14.1201C18.3755 13.9885 18.461 13.9088 18.5112 13.8813C18.5611 13.8537 18.6009 13.835 18.6309 13.8238C18.8713 13.7361 19.1541 13.821 19.4799 14.079C19.8054 14.3368 20.1107 14.6551 20.3962 15.0334C20.6816 15.412 21.0245 15.8368 21.425 16.3084C21.8257 16.7802 22.1761 17.1309 22.4764 17.3616L22.7767 17.559C22.9773 17.6908 23.2376 17.8115 23.5581 17.9211C23.8781 18.0308 24.1584 18.0582 24.3991 18.0034L28.2442 17.9377C28.6245 17.9377 28.9204 17.8687 29.1304 17.7318C29.3407 17.5947 29.4656 17.4437 29.5059 17.2794C29.5461 17.1149 29.5483 16.9283 29.5136 16.7196C29.4779 16.5115 29.4429 16.366 29.4079 16.2838Z" fill="white"/>
</svg>
